<?xml version="1.0" standalone="no"?>
<!DOCTYPE svg PUBLIC "-//W3C//DTD SVG 1.1//EN" "http://www.w3.org/Graphics/SVG/1.1/DTD/svg11.dtd" >
<svg xmlns="http://www.w3.org/2000/svg">
<metadata>
Created by FontForge 20120731 at Wed Mar 29 11:33:07 2017
 By admin
</metadata>
<defs>
<font id="iconfont" horiz-adv-x="1024" >
  <font-face 
    font-family="iconfont"
    font-weight="500"
    font-stretch="normal"
    units-per-em="1024"
    panose-1="2 0 6 3 0 0 0 0 0 0"
    ascent="896"
    descent="-128"
    x-height="792"
    bbox="-0.75 -129 1408 896.633"
    underline-thickness="0"
    underline-position="0"
    unicode-range="U+0078-E6F3"
  />
<missing-glyph 
 />
    <glyph glyph-name=".notdef" 
 />
    <glyph glyph-name=".notdef" 
 />
    <glyph glyph-name=".null" horiz-adv-x="0" 
 />
    <glyph glyph-name="nonmarkingreturn" horiz-adv-x="341" 
 />
    <glyph glyph-name="x" unicode="x" horiz-adv-x="1001" 
d="M281 543q-27 -1 -53 -1h-83q-18 0 -36.5 -6t-32.5 -18.5t-23 -32t-9 -45.5v-76h912v41q0 16 -0.5 30t-0.5 18q0 13 -5 29t-17 29.5t-31.5 22.5t-49.5 9h-133v-97h-438v97zM955 310v-52q0 -23 0.5 -52t0.5 -58t-10.5 -47.5t-26 -30t-33 -16t-31.5 -4.5q-14 -1 -29.5 -0.5
t-29.5 0.5h-32l-45 128h-439l-44 -128h-29h-34q-20 0 -45 1q-25 0 -41 9.5t-25.5 23t-13.5 29.5t-4 30v167h911zM163 247q-12 0 -21 -8.5t-9 -21.5t9 -21.5t21 -8.5q13 0 22 8.5t9 21.5t-9 21.5t-22 8.5zM316 123q-8 -26 -14 -48q-5 -19 -10.5 -37t-7.5 -25t-3 -15t1 -14.5
t9.5 -10.5t21.5 -4h37h67h81h80h64h36q23 0 34 12t2 38q-5 13 -9.5 30.5t-9.5 34.5q-5 19 -11 39h-368zM336 498v228q0 11 2.5 23t10 21.5t20.5 15.5t34 6h188q31 0 51.5 -14.5t20.5 -52.5v-227h-327z" />
    <glyph glyph-name="sharehome" unicode="&#xe600;" horiz-adv-x="1026" 
d="M9 -17v-7q0 -15 12 -26t31 -11t30 12t11 27v5q0 84 39 154t105.5 115t159.5 63.5t196 2.5v-86q0 -36 24.5 -61t59 -25t59.5 25l83 86l167 171q24 26 24 61.5t-24 60.5l-167 171l-83 86q-12 12 -27 18q-15 7 -32 7q-35 0 -59.5 -25t-24.5 -61v-85q-97 2 -178.5 -18
t-140.5 -56.5t-105.5 -88.5t-76 -111t-48.5 -128.5t-27 -136.5t-8 -139z" />
    <glyph glyph-name="pictaghome" unicode="&#xe601;" 
d="M861 880h-713q-61 0 -104 -42.5t-43 -101.5v-720q0 -60 43 -102t104 -42h713q61 0 104 42t43 102v720q0 59 -43 101.5t-104 42.5zM378.5 712q52.5 0 89.5 -37t37 -89t-37 -89t-89.5 -37t-89 37t-36.5 89t36.5 89t89 37zM840 40h-671v84l168 168l84 -84l251 252l168 -168
v-252z" />
    <glyph glyph-name="likehome" unicode="&#xe603;" horiz-adv-x="1037" 
d="M511 -87q-3 0 -5 1t-3 3l-415 403q-51 56 -72.5 120t-14 122.5t32 110t64.5 91.5q40 39 89 62.5t103 28.5t112 -18.5t109 -76.5q50 53 108 76.5t112.5 18.5t103.5 -28.5t88 -62.5q40 -40 65 -91.5t32 -110t-14.5 -122t-71.5 -120.5l-416 -404q-1 -1 -3 -2t-4 -1z" />
    <glyph glyph-name="pagecontroll" unicode="&#xe604;" 
d="M64 459h895v-150h-895v150z" />
    <glyph glyph-name="locationweather" unicode="&#xe605;" 
d="M511.5 880q-117.5 0 -217 -57t-157 -154.5t-57.5 -212.5q0 -52 13.5 -104.5t37 -98t53 -88.5t64 -80t67.5 -67.5t65.5 -56.5t55.5 -42.5t41 -28.5t19 -12q7 -6 15.5 -6t15.5 6l18.5 12t41 28.5t55.5 42.5t65.5 56.5t67.5 67.5t64.5 80t53 88.5t37 98t13.5 104.5
q0 115 -57.5 212.5t-157 154.5t-217 57zM511 -57q-8 7 -41 32.5t-61 49.5t-68 60.5t-71 75.5t-59.5 84t-44 97.5t-15.5 104.5q0 98 48 181t131.5 131t181 48t181 -48t131.5 -131t48 -181q0 -52 -15.5 -104.5t-44 -97.5t-59.5 -84t-71 -75.5t-68 -60.5t-61.5 -49.5
t-41.5 -32.5zM511.5 664q-89.5 0 -153 -63.5t-63.5 -153t63.5 -152.5t153 -63t152.5 63t63 152.5t-63 153t-152.5 63.5zM511.5 304q-59.5 0 -102 42t-42.5 102t42.5 102t102 42t101.5 -42t42 -102t-42 -102t-101.5 -42z" />
    <glyph glyph-name="logo" unicode="&#xe606;" horiz-adv-x="1035" 
d="M843 466h113v-7l-60 -28l-51 19l-19 -22l27 -17l-48 -23h-16v-23l26 -1v1l81 34l83 -34h32v23h-24l-47 23l63 39v47h-142v0l-35 15l-45 -66l32 -19zM451 497v0h-114v-31h111v-172h-119v78h111v24h-111v101h-47v-205v-25v-4h214v4v25v176v29v0h-19h-26zM789 263h43l29 63
h-43zM986 326h-46l33 -63h46zM20 341h175l-72 -78h56l71 78v24h-230v-24zM155 497v0h-55l-29 16l-67 -125h48l45 85h73l49 -85h47l-63 109h-48zM149 427h-49l21 -39h50zM678 341l37 -78h50l-36 78h-51zM631 388l-39 47h-48l39 -47h48zM631 442l-39 47h-48l38 -47h49z
M670 349h88v23h-64v125h-47v-125h-127v-23h95l-40 -55h-55v-31h84v0v0zM1011 333v24h-87l-1 7h-46l-1 -7h-87v-24h87v-70h47l1 70h87z" />
    <glyph glyph-name="morehome" unicode="&#xe607;" 
d="M814 428l-253 -288q-21 -17 -50.5 -17t-50.5 17l-253 288q-17 23 -13 50t28 47q22 16 46 11t41 -25l202 -230l202 230q17 19 42 23.5t47 -11.5q25 -20 27.5 -47.5t-15.5 -47.5z" />
    <glyph glyph-name="piclast" unicode="&#xe608;" 
d="M281 377l477 503l69 -72l-409 -431l409 -430l-69 -72l-409 431v0z" />
    <glyph glyph-name="picnext" unicode="&#xe609;" 
d="M827 377l-478 -502l-68 72l409 430l-409 431l68 72l409 -431v0z" />
    <glyph glyph-name="searchhome" unicode="&#xe60a;" horiz-adv-x="1028" 
d="M966 88l-141 140q0 1 4.5 8.5l4.5 7.5q48 94 48 199q0 89 -34.5 169.5t-93 139t-139.5 93t-169.5 34.5t-169.5 -34.5t-139.5 -93t-93 -139t-34.5 -169.5t34.5 -170t93 -139.5t139.5 -93t169 -34.5q105 0 199 48l9 4.5t10 4.5l139 -139q41 -41 88 -46t88 32q38 41 33.5 89
t-45.5 89zM445.5 140q-125.5 0 -214 89t-88.5 214t88.5 213.5t214 88.5t214 -88.5t88.5 -213.5t-88.5 -214t-214 -89z" />
    <glyph glyph-name="fellowtool" unicode="&#xe60c;" 
d="M866 310q-71 62 -143 92q58 58 58 140t-57.5 140t-139 58t-139 -58t-57.5 -140q0 -85 62 -143q-69 -30 -137 -89q-137 -119 -72 -192q71 -79 349 -79q302 0 358 91q44 72 -82 180zM669 485q0 -13 -23 -22.5t-56 -9.5t-56.5 9.5t-23.5 22.5q0 3 3 8q-3 7 -3 13h21
q24 11 59 11t59 -11h20q0 -6 -2 -13q2 -5 2 -8zM295 481.5q0 15.5 -11 26.5t-26 11h-74v73q0 16 -10.5 26.5t-26 10.5t-26 -10.5t-10.5 -26.5v-73h-74q-15 0 -26 -11t-11 -26.5t11 -26t26 -10.5h74v-74q0 -15 10.5 -26t26 -11t26 11t10.5 26v74h74q15 0 26 10.5t11 26z" />
    <glyph glyph-name="hometool" unicode="&#xe60d;" horiz-adv-x="1036" 
d="M1006 371l-464 465q-14 10 -32 10t-28 -10l-464 -465q-14 -13 -15 -32t10 -33q14 -13 32.5 -14t32.5 10l60 60v-395q0 -20 13 -33t34 -13h185q21 0 34 13t13 33v186h185v-186q0 -20 13 -33t34 -13h185q21 0 34 13t13 33v395l60 -56q14 -14 32.5 -14t32.5 14t14 34.5
t-14 30.5zM602 339h-185v93h185v-93z" />
    <glyph glyph-name="lastpagetool" unicode="&#xe60e;" 
d="M235 339l464 -444q19 -18 46 -18t46.5 18.5t19.5 44.5t-20 44l-417 399l417 400q20 18 20 44t-19.5 44.5t-46.5 18.5t-46 -19l-464 -443q-19 -19 -19 -45t19 -44z" />
    <glyph glyph-name="nextpagetool" unicode="&#xe60f;" 
d="M791 428l-463 443q-20 19 -47 19t-46 -18.5t-19 -44.5t19 -44l417 -400l-417 -399q-19 -18 -19 -44t19 -44.5t46 -18.5t47 18l463 444q20 18 20 44t-20 45z" />
    <glyph glyph-name="relatedarticletool" unicode="&#xe610;" 
d="M775 140v687q0 22 -15 37t-37 15h-634q-22 0 -37.5 -15t-15.5 -37v-687q0 -22 15.5 -37.5t37.5 -15.5h634q22 0 37 15.5t15 37.5zM564 298h-317q-22 0 -37.5 15.5t-15.5 37.5t15.5 37.5t37.5 15.5h317q22 0 37.5 -15.5t15.5 -37.5t-15.5 -37.5t-37.5 -15.5zM564 563h-317
q-22 0 -37.5 15.5t-15.5 37t15.5 37t37.5 15.5h317q22 0 37.5 -15.5t15.5 -37t-15.5 -37t-37.5 -15.5zM828 721v-106h53v-633h-528v52h-106v-158h634q44 0 75 31t31 75v739h-159z" />
    <glyph glyph-name="toptool" unicode="&#xe611;" horiz-adv-x="1036" 
d="M996 241l-405 405q-7 10 -16 18q-29 27 -69 24q-33 -2 -57 -24q-9 -8 -15 -18l-407 -404q-24 -25 -23 -60t28 -59.5t63.5 -24.5t61.5 25l355 354l355 -354q25 -25 61.5 -25t63 24.5t28 59.5t-23.5 59z" />
    <glyph glyph-name="unfollowtool" unicode="&#xe612;" 
d="M866 310q-71 62 -143 92q58 58 58 140t-57.5 140t-139 58t-139 -58t-57.5 -140q0 -85 62 -143q-69 -30 -137 -89q-137 -119 -72 -192q71 -79 349 -79q302 0 358 91q44 72 -82 180zM669 485q0 -13 -23 -22.5t-56 -9.5t-56.5 9.5t-23.5 22.5q0 3 3 8q-3 7 -3 13h21
q24 11 59 11t59 -11h20q0 -6 -2 -13q2 -5 2 -8zM295 481.5q0 15.5 -11 26.5t-26 11h-221q-15 0 -26 -11t-11 -26.5t11 -26t26 -10.5h221q15 0 26 10.5t11 26z" />
    <glyph glyph-name="videofeed" unicode="&#xe613;" 
d="M639 383l-254 -168v337z" />
    <glyph glyph-name="checkfunction" unicode="&#xe622;" 
d="M827.5 602.5q-20.5 19.5 -49.5 19.5t-49 -20l-309 -292l-129 123q-21 19 -49.5 19t-49 -19.5t-20.5 -47t20 -47.5l179 -170q20 -19 49 -19t50 19l357 339q21 20 21 48t-20.5 47.5z" />
    <glyph glyph-name="refreshpgc" unicode="&#xe614;" horiz-adv-x="1035" 
d="M330.5 414.5q-12.5 12.5 -30 12.5t-29.5 -13l-54 -53v3l-1 6v14q0 123 86.5 209.5t209.5 86.5q16 0 29 -1t27 -4q15 -3 27 -7t20 -6q5 -2 9 -4q11 -4 23 -11q34 -17 66 -46q13 -12 30.5 -11t29.5 14t11 30.5t-14 29.5q-41 37 -84 58q-16 9 -28 13q-6 3 -15 6q-8 3 -23 8
q-17 5 -35 8q-19 4 -35 6q-17 2 -38 2q-103 0 -191 -51t-139 -139t-51 -191q0 -13 1 -20v-2.5v-2.5v0l-55 55q-13 13 -30.5 13t-29.5 -12.5t-12 -30t12 -30.5l97 -96q25 -25 60 -25t59 25l97 96q13 13 13 30.5t-12.5 30zM1007 414l-97 97q-25 25 -60 25t-60 -25l-97 -97
q-12 -12 -12 -29.5t12.5 -30t30 -12.5t29.5 12l54 54v-3v-7q1 -3 1 -14q0 -122 -87 -208.5t-209 -86.5q-30 0 -57 5q-15 3 -27 7q-36 10 -71 32q-4 1 -11 6q-19 13 -35 28q-13 12 -30.5 11.5t-29.5 -13.5t-11.5 -30.5t13.5 -29.5q22 -20 45 -35q12 -8 18 -11q42 -26 88 -39
q16 -5 35 -9q35 -7 73 -7q103 0 190.5 51t138.5 138.5t51 190.5v21l-0.5 2l-0.5 2v1l56 -56q12 -12 29.5 -12t30 12.5t12.5 30t-12 29.5z" />
    <glyph glyph-name="error" unicode="&#xe615;" 
d="M723 108q-20 0 -34 14l-437 440q-15 14 -15 34t13.5 34t33.5 14.5t34 -13.5q1 0 2 -1l437 -440q14 -14 14 -34t-14 -34t-34 -14zM284.5 109q-19.5 0 -34 14t-14.5 34t15 35l440 437q14 14 34 14t34 -14.5t13.5 -34t-14.5 -33.5l-440 -438q-14 -14 -33.5 -14zM504.5 -127
q-102.5 0 -196 39.5t-160.5 107t-107 161t-40 196t40 195.5t107 160.5t160.5 107.5t196 40t195.5 -40t160.5 -107.5t107.5 -160.5t40 -195.5t-40 -196t-107.5 -160.5t-160.5 -107t-195.5 -40zM504 807q-117 0 -216 -57.5t-157 -157t-58 -216.5t58 -216.5t157 -157
t216.5 -57.5t216.5 57.5t157 157t58 216.5v0q0 117 -58 216.5t-157.5 157t-216.5 57.5v0z" />
    <glyph glyph-name="headlogin" unicode="&#xe616;" horiz-adv-x="1159" 
d="M357 575zM477.5 824q-96.5 0 -184 -37.5t-151 -101t-101.5 -151.5t-38 -184.5t38 -184t101.5 -151t151 -101.5t184 -38t184.5 38t151.5 101.5t101 151t37.5 184t-37.5 184.5t-101 151.5t-151.5 101t-184.5 37.5zM477.5 -112q-93.5 0 -179 37t-147 98.5t-98.5 147t-37 179
t37 179t98.5 147.5t147 98.5t179 36.5t179 -36.5t147.5 -98.5t98.5 -147.5t36.5 -179t-36.5 -179t-98.5 -147t-147.5 -98.5t-179 -37zM658 291q4 -4 9.5 -4t7.5 3q4 3 4.5 8.5t-2.5 9.5q-28 31 -68 53q39 48 39 107q0 70 -49.5 119.5t-119.5 49.5t-119.5 -49.5t-49.5 -119.5
q0 -57 38 -105q-62 -35 -96.5 -96t-34.5 -132q0 -5 3.5 -9t9.5 -4q5 0 9 4t4 9q0 67 34.5 123.5t93.5 87.5l3 1q2 0 2 1q1 1 3 6v1q1 2 -1 9q0 3 -2 3q-41 41 -41 101q0 59 42.5 101.5t101.5 42.5t101.5 -42.5t42.5 -101.5q0 -58 -39 -99l-1 -1v-1q0 -2 -3 -2v-4v-4l1 -2
t2 -3q0 -1 1 -2q2 0 3 -2q0 -1 1 -1q40 -22 70 -56zM754 205h-59v60q0 9 -9 9t-9 -9v-60h-60q-9 0 -9 -9q0 -3 2.5 -6t6.5 -3h60v-59q0 -4 2.5 -6.5t6.5 -2.5q9 0 9 9v59h59q10 0 10 9q0 4 -3 6.5t-7 2.5z" />
    <glyph glyph-name="errormessage" unicode="&#xe617;" 
d="M504 880q-102 0 -195 -40.5t-160.5 -108t-107.5 -160.5t-40 -195t40 -195t107.5 -160.5t160.5 -107.5t195 -40t195.5 40t161 107.5t107.5 160.5t40 195t-40 195t-107.5 160.5t-161 108t-195.5 40.5zM756 326h-503q-19 0 -35 15.5t-16 34.5t16 34.5t35 15.5h503
q19 0 34.5 -15.5t15.5 -34.5t-15.5 -34.5t-34.5 -15.5z" />
    <glyph glyph-name="clearicon" unicode="&#xe618;" 
d="M861 733q-99 96 -229.5 130t-259.5 0t-225 -130.5t-130.5 -226.5t0 -260.5t130.5 -227t226.5 -130.5t261 0t227 130.5t130.5 227t0 260.5t-131 227zM716 227q14 -14 14 -34.5t-14 -35t-34.5 -14.5t-35.5 14l-145 146l-145 -146q-15 -14 -35.5 -14t-34.5 14.5t-14 35
t14 34.5l145 145l-145 146q-15 14 -13.5 34.5t19.5 34.5q15 14 32 14t32 -14l145 -145l145 145q15 14 35.5 14t34.5 -14t14 -34.5t-14 -34.5l-146 -146z" />
    <glyph glyph-name="correct" unicode="&#xe619;" horiz-adv-x="1039" 
d="M491 -111q-100 1 -191.5 40.5t-157 106t-104 158.5t-38 192.5t40.5 191.5t106.5 157t158 104.5t192.5 37.5q98 0 188 -38t159 -107q10 -11 10 -25.5t-10 -24.5v-1q-11 -10 -25.5 -10t-25.5 10q-81 81 -190 109.5t-217.5 -0.5t-189.5 -110.5t-109.5 -190t0.5 -217.5
t110.5 -189.5t190.5 -109.5t217.5 0.5t189.5 110.5q59 60 91 137.5t32 161.5q0 32 -5 63q-2 15 7 26.5t23.5 13.5t26 -6.5t13.5 -23.5q6 -36 6 -73q-1 -101 -40.5 -192.5t-106.5 -158t-159 -105t-193 -38.5zM497 143q-20 0 -34 14l-254 252q-14 14 -14.5 33t12.5 33q1 0 2 1
q13 14 33 14t34 -14l221 -219l445 441q14 13 33.5 13t33.5 -13q14 -14 14 -33.5t-14 -33.5l-478 -474q-14 -14 -34 -14v0z" />
    <glyph glyph-name="dislikenewfeed" unicode="&#xe61e;" 
d="M606 384l142 -142q19 -19 19 -46.5t-19.5 -47t-46.5 -19.5t-47 20l-142 142l-142 -142q-19 -20 -46.5 -20t-46.5 19.5t-19 47t19 46.5l142 142l-142 142q-19 19 -19 46.5t19 47t46.5 19.5t46.5 -19l142 -142l142 142q20 19 47 19t46.5 -19.5t19.5 -47t-19 -46.5z" />
    <glyph glyph-name="searchheader" unicode="&#xe632;" 
d="M924 141l-126 126l-0.5 0.5t-1.5 0.5q43 84 43 176q0 106 -51.5 195t-141 140.5t-194.5 51.5t-194 -51.5t-141 -140.5t-52 -194.5t52 -194.5t141 -141t194 -52q93 0 176 43l0.5 -0.5l0.5 -0.5l127 -126q35 -35 84 -35t84 34.5t35 84t-35 84.5zM452 177q-111 0 -189.5 78
t-78.5 189t78.5 189.5t189.5 78.5t189.5 -78.5t78.5 -189.5t-78.5 -189t-189.5 -78z" />
    <glyph glyph-name="backtotopfeed" unicode="&#xe63f;" 
d="M947 188q-15 -15 -36.5 -15t-36.5 15l-361 361l-361 -361q-15 -15 -36.5 -15t-36.5 15t-15 36.5t15 36.5l397 398q15 15 36.5 15t37.5 -15l397 -398q15 -15 15 -36.5t-15 -36.5z" />
    <glyph glyph-name="refreshfeed" unicode="&#xe640;" 
d="M514 -121q-112 0 -211 45.5t-170 127.5v-116q0 -24 -16.5 -40.5t-40 -16.5t-40 16.5t-16.5 40.5v348q0 22 14.5 38t35.5 19q21 2 39 -10.5t23 -33.5q30 -135 137 -220t245 -85t244.5 85t137.5 220q5 23 25 35.5t43 7t35.5 -25t6.5 -42.5q-39 -174 -176.5 -283.5
t-315.5 -109.5zM77 429q-7 0 -13 1q-23 5 -35.5 25t-7.5 43q40 173 177.5 282.5t315.5 109.5q112 0 211 -45.5t170 -126.5v116q0 23 16.5 39.5t40 16.5t40 -16.5t16.5 -39.5v-349q0 -21 -14.5 -37.5t-36 -18.5t-39 10.5t-22.5 33.5q-31 134 -137.5 219.5t-244.5 85.5
t-245 -85.5t-137 -219.5q-5 -20 -20.5 -32t-34.5 -12z" />
    <glyph glyph-name="askiconanswer" unicode="&#xe633;" 
d="M835 400h-196l-13 -39h223zM609 547h25l18 -70h60l-16 70h49l14 39h-72v0h-62v0h-5v0h-65l-28 -109h62zM909 586v0h-63v0h-5v0h-64l-29 -109h62l20 70h26l17 -70h60l-15 70h31l14 39h-54zM355 480v0v0h-187v0v-39v-109v-39v0h187v0v0v187zM224 441h75v-109h-75v109z
M402 588h-340v-1h-2v-402h62v0h244l35 39h-279v324h280v-363h62v403h-62v0zM920 339h-365v0h-1v-155h1v0h366v0v0v155h-1v0zM858 300v-77h-242v77h242zM660 463l-13 -39h217l21 -63h61l-34 102h-252zM624 463h-61l-34 -102h61z" />
    <glyph glyph-name="askiconv" unicode="&#xe641;" 
d="M447 182l-135 575h98v77h-344q-2 -76 0 -77q14 -2 36 -2t36 1l14 1q15 -35 21 -51q0 20 47 -168t94.5 -385.5t47.5 -198.5q9 -30 23 8q5 13 6 13l483 782h86v77h-242v-77h86z" />
    <glyph glyph-name="askiconwrite" unicode="&#xe642;" horiz-adv-x="1025" 
d="M170 213l171 -171l512 512l-171 171zM853 896l-85 -85l171 -171l85 85zM0 -128l255 85l-170 170z" />
    <glyph glyph-name="digg" unicode="&#xe64a;" 
d="M1008 496q-2 2 -6 7.5t-5.5 7.5t-5.5 7t-7 7t-7 4.5t-8 4t-8 1.5h-299l69 212q5 21 -4.5 40.5t-29.5 29.5l-134 69q-21 11 -45.5 5.5t-38.5 -25.5l-251 -344h-157q-27 0 -46.5 -18.5t-19.5 -44.5v-519q0 -26 19.5 -45t46.5 -19h707q21 0 38 12t24 32l177 519q10 31 -9 57
zM303 415l250 332l38 -20l-61 -254q-7 -30 13 -54q6 -7 15.5 -8t24 1.5t19.5 2.5h239l-119 -419h-419v419zM123 -4v420h60v-420h-60z" />
    <glyph glyph-name="favorite" unicode="&#xe64b;" 
d="M789 -95q-14 0 -26 7l-253 131l-252 -131q-31 -17 -60 4t-23 55l48 278l-204 197q-25 25 -14 58q5 16 17.5 26t28.5 13l282 40l126 253q15 29 51.5 29t51.5 -29l126 -253l282 -40q16 -3 28.5 -13t17.5 -26q11 -33 -14 -58l-205 -197l49 -278q6 -34 -23 -55
q-15 -11 -34 -11zM510.5 163q14.5 0 26.5 -6l176 -92l-33 194q-5 30 16 51l143 137l-197 29q-30 4 -43 30l-89 177l-88 -177q-13 -26 -43 -30l-197 -29l143 -137q21 -21 16 -51l-33 -194l176 92q12 6 26.5 6z" />
    <glyph glyph-name="qzone" unicode="&#xe64c;" 
d="M731 450h-386l254 -43l-273 -219h414l-244 52zM833 890h-645q-76 0 -130 -54t-54 -130v-645q0 -77 54 -131t130 -54h645q77 0 131 54t54 131v645q0 76 -54 130t-131 54zM870 439l-138 -119l46 -296q-7 -7 -9.5 -8t-9.5 -1l-239 148l-239 -148q-15 0 -18 1t-3 8l33 296
l-145 130l-52 37v4h287l37 66l92 195h18l101 -195l37 -66h248h5t3.5 -0.5t0.5 -6.5zM1161 629z" />
    <glyph glyph-name="report" unicode="&#xe64d;" 
d="M957 892h-889q-27 0 -45.5 -18.5t-18.5 -45.5v-889q0 -26 18.5 -44.5t45.5 -18.5h889q26 0 44.5 18.5t18.5 44.5v889q0 27 -18.5 45.5t-44.5 18.5zM893 3h-762v762h762v-762zM576 638h-127v-317h127v317zM576 257h-127v-127h127v127z" />
    <glyph glyph-name="sina" unicode="&#xe64e;" 
d="M479 310q-6 -5 -7.5 -12t2.5 -12q3 -5 9 -5.5t12 3.5q14 11 6 24q-7 13 -22 2zM478 439q-92 -5 -155.5 -49t-63.5 -105t64 -101.5t155 -36.5q90 4 155 53.5t65 111.5q0 60 -63.5 95.5t-156.5 31.5zM561 232q-30 -38 -78.5 -49t-103.5 16q-15 8 -23.5 22t-8.5 24l-1 9
q0 3 -0.5 7t0.5 16.5t4 24t10.5 26t18.5 25.5t30.5 20t44.5 12q43 5 73 -11t40.5 -42t9 -53.5t-15.5 -46.5zM421 294q-16 -2 -27.5 -14.5t-11.5 -27.5q0 -14 12 -23t29 -7t29 13.5t12 26.5t-12 24.5t-31 7.5zM835 891h-646q-76 0 -130.5 -54t-54.5 -131v-646
q0 -76 54.5 -130.5t130.5 -54.5h646q77 0 131 54.5t54 130.5v646q0 77 -54 131t-131 54zM806 257q-24 -51 -82 -88t-125 -52t-130 -10q-38 3 -72.5 9.5t-71.5 21t-64.5 34.5t-47.5 52.5t-24 73.5q-1 7 -1 20t13.5 52t40.5 76q4 5 10.5 13.5t27.5 32t42 43.5t52 41t60 31
t51.5 10.5t34 -6t18.5 -18.5t9 -23t2 -23q-7 -24 -4.5 -34t27.5 -2q5 2 12 5t26.5 8.5t37 8t37 -1t31.5 -15.5q15 -15 16.5 -35.5t-5.5 -32.5l-6 -13q0 -1 -1 -2t-1.5 -4t0 -5.5t5 -5.5t12.5 -4q11 -3 23.5 -8.5t27.5 -18.5t24.5 -29.5t9 -43t-14.5 -57.5zM706 554
q-9 0 -14.5 6t-5.5 14.5t5.5 14.5t14.5 6q2 0 6.5 1t17 0.5t24 -3t24.5 -10t22 -19t13.5 -33t1.5 -48.5v-2q-1 -8 -6.5 -12.5t-13.5 -4.5t-14 5.5t-6 14.5v0q9 41 -12 62q-18 17 -57 8zM916 446v0q-2 -16 -9 -20.5t-19 -4.5t-20.5 7.5t-8.5 19.5q0 6 1.5 13t2.5 11l2 4
q13 47 -9 98q-20 34 -54.5 52t-58 20.5t-31.5 -0.5l-26 -6q-12 0 -20.5 8.5t-8.5 20.5q0 22 21 29h0.5t1.5 0.5l1 0.5q57 11 100 1q25 -6 48.5 -18t46.5 -33t35.5 -49.5t16 -67t-11.5 -86.5z" />
    <glyph glyph-name="tag" unicode="&#xe64f;" 
d="M1015 711q0 20 -14.5 34.5t-34.5 14.5l-160 2q-20 0 -33.5 -13t-14.5 -32l-6 -137q-1 -20 12 -35t33 -16t35 12t16 32l4 92h67l3 -236l-321 -316l-239 238l338 338q14 13 13.5 33t-14.5 34.5t-34 14.5t-34 -14l-372 -371q-14 -14 -13.5 -34t14.5 -34v0v0l308 -306
q14 -14 33.5 -14.5t33.5 13.5l369 363q14 14 14 34zM120 351l339 338q14 13 13.5 33t-14.5 34.5t-34 14.5t-34 -14l-372 -371q-14 -14 -14 -34t14 -34v0h1q199 -198 276 -275q-1 1 15 18.5t32.5 34.5l16.5 17z" />
    <glyph glyph-name="wechat" unicode="&#xe650;" 
d="M834 891h-645q-77 0 -131 -54t-54 -131v-645q0 -76 54 -130t131 -54h645q76 0 130 54t54 130v645q0 77 -54 131t-130 54zM390 195q-28 0 -103 15l-102 -52l29 90q-117 84 -117 203q0 107 86 181t207 74q108 0 192.5 -60t103.5 -151q-15 2 -28 2q-104 0 -176.5 -69.5
t-72.5 -167.5q0 -32 9 -63q-15 -2 -28 -2zM823 90l22 -75l-80 45q-59 -15 -88 -15q-105 0 -177.5 64t-72.5 154.5t72.5 154t177.5 63.5q100 0 174.5 -64.5t74.5 -153.5q0 -56 -26 -95t-77 -78zM757 314zM725 314q0 13 9.5 22.5t22.5 9.5t22.5 -9.5t9.5 -22.5t-9.5 -22.5
t-22.5 -9.5t-22.5 9.5t-9.5 22.5zM596 315zM564 315.5q0 13.5 9.5 23t22.5 9.5t22.5 -9.5t9.5 -23t-9.5 -23t-22.5 -9.5t-22.5 9.5t-9.5 23zM288 545zM249 545q0 16 11.5 27.5t27.5 11.5t27.5 -11.5t11.5 -27.5t-11.5 -27.5t-27.5 -11.5t-27.5 11.5t-11.5 27.5zM481 545z
M442 545q0 16 11.5 27.5t27.5 11.5t27.5 -11.5t11.5 -27.5t-11.5 -27.5t-27.5 -11.5t-27.5 11.5t-11.5 27.5z" />
    <glyph glyph-name="check" unicode="&#xe643;" 
d="M390 91q-27 0 -46 20l-194 203q-20 20 -20 48.5t19.5 48.5t46.5 20t46 -20l148 -156l389 407q20 20 47 20t46 -20t19 -48t-19 -48l-436 -455q-19 -20 -46 -20z" />
    <glyph glyph-name="askshareqzonenormal" unicode="&#xe644;" 
d="M1023 503q0 7 -1 8t-5 0h-5h-114h-192l-45 78l-124 232h-23l-113 -232l-45 -78h-192h-162v-5l64 -44l179 -153l-41 -352q0 -8 4 -9.5t21 -1.5l295 176l295 -176q8 0 11 1.5t12 9.5l-57 352l170 141zM277 167l328 259l-306 51h464l-283 -249l294 -61h-497z" />
    <glyph glyph-name="askshareweibonormal" unicode="&#xe645;" 
d="M758 399q-17 3 -22.5 10.5t-1.5 12.5l4 6l3.5 7t7 18.5t5 26.5t-5 29.5t-18.5 29.5q-12 12 -29 18t-35.5 6t-37.5 -2.5t-36 -7.5t-31 -10t-21 -8l-8 -4q-12 -3 -19.5 -4.5t-12 0.5t-6.5 3.5t-1.5 8t1 11t3 14.5t3.5 16q0 18 -2.5 33t-12.5 31.5t-26.5 25t-47 8
t-71.5 -14.5q-40 -14 -82 -42t-73.5 -57.5t-57 -57.5t-39 -45.5t-13.5 -18.5q-76 -101 -75 -193q0 -9 1 -9q6 -56 33.5 -100t65.5 -71.5t89.5 -47t99 -28.5t100.5 -13q87 -7 179.5 13.5t173 71t113.5 120.5q19 42 19.5 78t-12 59t-33 40.5t-38.5 25.5t-33 11zM401 35
q-125 -6 -214 49t-89 139t88.5 144t214.5 66q129 6 216.5 -42.5t87.5 -130.5q0 -85 -89.5 -152.5t-214.5 -72.5zM368 359q-35 -4 -61.5 -16t-42 -28t-26 -34t-14.5 -36t-5 -32t-1 -23t1 -9v-5.5t2 -13.5t6.5 -19t14 -19.5t22.5 -17.5q47 -26 97 -27t89 18.5t66 53.5
q15 20 20.5 49t-2.5 58.5t-26.5 54.5t-55 38.5t-84.5 7.5zM325.5 137q-23.5 -3 -40.5 9t-17 32t16 37.5t39 19.5q26 3 42.5 -10t16.5 -34q0 -19 -16.5 -35t-40 -19zM425 222q-8 -6 -16.5 -5.5t-13.5 8.5q-4 6 -2 16t9 16q10 6 18.5 5t13 -8t2 -16.5t-10.5 -15.5zM840 467
q11 0 18.5 6.5t9.5 16.5v3q14 131 -88 152q-34 7 -64 2q-11 0 -19 -8.5t-8 -20t8 -19.5t19 -8q37 7 58 0.5t29.5 -22.5t10.5 -32.5t1 -29.5l-2 -12q0 -12 8 -20t19 -8zM820 791q-59 13 -138 -2l-1.5 -0.5l-1.5 -0.5l-1 -1q-13 -4 -21.5 -14.5t-8.5 -24.5q0 -17 12 -28.5
t29 -11.5q21 2 36 8q6 1 20.5 2.5t38.5 -4.5t48 -15.5t49.5 -30.5t42.5 -50q31 -70 13 -134q-8 -20 -8 -39q0 -16 11.5 -26t28.5 -10t26 6.5t12 27.5h1q21 65 16 118t-23 92t-50 67.5t-64 45.5t-67 25z" />
    <glyph glyph-name="askshareweixinnormal" unicode="&#xe646;" 
d="M716 555h15q-20 114 -122.5 190t-239.5 76q-99 0 -183.5 -42t-133.5 -114.5t-49 -157.5q0 -75 38.5 -140.5t105.5 -109.5l3 -2l-35 -113l132 69q4 -2 6 -2q57 -16 116 -16q4 0 11.5 -2t11.5 -2q-10 31 -10 80q0 78 45 144t121.5 104t167.5 38zM465 675q30 0 51 -21
t21 -51.5t-21 -52t-51 -21.5t-51.5 21.5t-21.5 52t21.5 51.5t51.5 21zM222 529q-30 0 -51.5 21.5t-21.5 52t21.5 51.5t51.5 21t51.5 -21t21.5 -51.5t-21.5 -52t-51.5 -21.5zM1024 234q0 102 -85.5 174.5t-206 72.5t-206 -72.5t-85.5 -174.5t85.5 -174.5t205.5 -72.5
q48 0 93 12l5 2l105 -55l-28 90q2 1 3 2q53 34 83.5 85.5t30.5 110.5zM636 238q-20 0 -34.5 14t-14.5 34.5t14.5 34.5t34.5 14t34 -14t14 -34.5t-14 -34.5t-34 -14zM829 238q-20 0 -34 14t-14 34.5t14 34.5t34 14t34.5 -14t14.5 -34.5t-14.5 -34.5t-34.5 -14z" />
    <glyph glyph-name="askfullscreenicon" unicode="&#xe647;" horiz-adv-x="1025" 
d="M678 484l259 259v-146q0 -18 12.5 -30.5t30 -12.5t30 12.5t12.5 30.5v245q4 24 -13 40q-16 17 -41 12h-244q-17 0 -29.5 -12.5t-12.5 -30t12.5 -30t29.5 -12.5h146l-258 -259q-14 -13 -14 -32.5t13.5 -33.5t33 -14t33.5 14zM346 284l-259 -259v147q0 17 -12.5 29.5
t-30 12.5t-30 -12.5t-12.5 -29.5v-246q-3 -24 13 -40q16 -17 41 -12h244q17 0 29.5 12.5t12.5 30t-12.5 30t-29.5 12.5h-146l259 259q13 13 13 32.5t-13.5 33.5t-33 14t-33.5 -14zM1022 309q2 7 2 14q0 18 -12.5 30.5t-30.5 12.5t-31 -12.5t-13 -30.5v0v-364h-360v0
q-18 0 -30.5 -13t-12.5 -31t12.5 -30.5t30.5 -12.5q7 0 13 2h432v435zM448 896q-7 0 -13 -2h-433v-436q-2 -6 -2 -12q0 -18 12.5 -30.5t30.5 -12.5t31 12.5t13 30.5v3v360h360v0h1q18 0 30.5 13t12.5 31t-12.5 30.5t-30.5 12.5z" />
    <glyph glyph-name="askscreenicon" unicode="&#xe648;" 
d="M981 -128h-256q-17 0 -29.5 12.5t-12.5 30t12.5 30t29.5 12.5h214v214q0 17 12.5 29.5t30 12.5t30 -12.5t12.5 -29.5v-256q0 -18 -12.5 -30.5t-30.5 -12.5zM981.5 555q-17.5 0 -30 12.5t-12.5 29.5v214h-214q-17 0 -29.5 12.5t-12.5 30t12.5 30t29.5 12.5h256
q18 0 30.5 -12.5t12.5 -30.5v-256q0 -17 -12.5 -29.5t-30 -12.5zM299 -128h-256q-18 0 -30.5 12.5t-12.5 30.5v256q0 17 12.5 29.5t30 12.5t30 -12.5t12.5 -29.5v-214h214q17 0 29.5 -12.5t12.5 -30t-12.5 -30t-29.5 -12.5zM299 811h-214v-214q0 -17 -12.5 -29.5t-30 -12.5
t-30 12.5t-12.5 29.5v256q0 18 12.5 30.5t30.5 12.5h256q17 0 29.5 -12.5t12.5 -30t-12.5 -30t-29.5 -12.5z" />
    <glyph glyph-name="comments" unicode="&#xe649;" 
d="M974 13h-324l-97 -115q-14 -23 -42 -23h-1q-28 0 -42 24l-97 114h-324q-20 0 -33 16.5t-13 36.5v689q0 20 14.5 33.5t34.5 13.5h413q20 0 34 -13.5t14 -33t-13.5 -33t-33.5 -13.5h-371v-603h278q42 0 52 -17l89 -119l90 119q10 17 48 17h278v371q0 20 13.5 33.5t33 13.5
t33 -13.5t13.5 -33.5v-417q0 -20 -13.5 -33.5t-33.5 -13.5v0zM496 302q-12 -12 -30 -10.5t-32.5 16t-16 32.5t10.5 30l514 515q12 11 30.5 9.5t32.5 -15.5t15.5 -32.5t-10.5 -30.5z" />
    <glyph glyph-name="diggclicked" unicode="&#xe651;" 
d="M1008 497q-1 1 -5 7t-5.5 8t-5.5 7t-7 7t-7 4.5t-8 3.5t-8 1h-350l68 226q5 21 -4 40.5t-29 30.5l-83 55q-21 11 -45.5 5.5t-38.5 -25.5l-251 -344h-157q-28 0 -47 -18.5t-19 -44.5v-519q0 -26 19 -45t47 -19h707q21 0 38 12t24 32l177 519q10 31 -10 57z" />
    <glyph glyph-name="favoriteclicked" unicode="&#xe652;" 
d="M790 -91q-14 0 -26 7l-253 131l-252 -131q-31 -16 -60 4.5t-23 55.5l48 278l-204 197q-25 24 -14 58q5 15 17.5 25.5t28.5 12.5l282 41l126 253q15 29 51.5 29t51.5 -29l126 -253l282 -41q16 -2 28.5 -12.5t17.5 -25.5q11 -34 -14 -58l-204 -197l48 -278q6 -35 -23 -56
q-15 -11 -34 -11z" />
    <glyph glyph-name="morehome-copy" unicode="&#xe653;" 
d="M210 340l253 288q21 17 50.5 17t50.5 -17l253 -288q17 -23 13 -50t-28 -47q-22 -16 -46 -11t-41 25l-202 230l-202 -230q-17 -19 -42 -23.5t-47 11.5q-25 20 -27.5 47.5t15.5 47.5z" />
    <glyph glyph-name="askiconauditing" unicode="&#xe654;" 
d="M689 176l-170 170l195 194l91 -91q12 -13 30.5 -13t31 13t12.5 31t-13 31l-91 91l62 62l91 -91q13 -13 31 -13t31 12.5t13 31t-13 30.5l-91 91l54 55q20 19 20 46t-20 46v1q-19 19 -46 19t-46 -19l-434 -434l-126 125q-44 44 -106.5 44t-106.5 -44q-40 -40 -43 -97
t32 -101q-57 -61 -55.5 -144t59.5 -142q43 -43 102 -55.5t112 7.5q5 -26 24 -45t44.5 -24t48.5 5q12 -23 29 -40q52 -52 124.5 -52t124 51.5t51.5 124t-52 124.5zM196.5 177.5q-19.5 19.5 -19.5 46.5t19.5 46t46.5 19t46 -19t19 -46t-19 -46.5t-46 -19.5t-46.5 19.5z" />
    <glyph glyph-name="askiconcorrect" unicode="&#xe655;" 
d="M928 759v37q0 40 -30.5 68t-73.5 28h-694q-43 0 -73.5 -28t-30.5 -68v-190q0 -39 30.5 -67t73.5 -28h694q43 0 73.5 28t30.5 67l1 -109q0 -25 -22.5 -39t-37.5 -12l-322 1q-43 0 -73.5 -27.5t-30.5 -67.5v-37q-31 -10 -50.5 -34.5t-19.5 -55.5v-253q0 -40 30.5 -68
t73.5 -28t73.5 28t30.5 68v253q0 31 -19 55.5t-50 34.5v37q0 13 10.5 22.5t24.5 9.5h347q42 0 73 31t31 71v177q0 32 -20 59t-50 37zM879 688q-6 -12 -19 -15t-23 0l-10 2l-60 16q-22 5 -53 7.5t-51 2.5h-20q-32 0 -72 -6.5t-64 -13.5l-24 -7q-36 -13 -72 -20.5t-54 -9.5
l-18 -1q-34 -3 -64.5 -3t-58 2.5t-50 6.5t-41 8.5t-30.5 8t-19 6.5l-7 3q-23 13 -16 36q9 21 45 21q17 -6 40 -11.5t36.5 -8t14.5 -2.5q37 -7 78 -7t70 3.5t58 9.5t38.5 9t14.5 5v0q38 11 69.5 18.5t43.5 9.5l13 1q82 9 146.5 2.5t103.5 -18.5l39 -12q12 -5 16 -16t2 -19z
M512 -28q0 -13 -10.5 -22.5t-24.5 -9.5t-24 9.5t-10 22.5v253q0 13 10 22.5t24 9.5t24.5 -9.5t10.5 -22.5v-253z" />
    <glyph glyph-name="askiconfail" unicode="&#xe656;" 
d="M512 892q-103 0 -191 -51t-139 -139t-51 -191q0 -87 37 -163.5t102 -130.5v0q52 -42 52 -100v-114q0 -26 18.5 -44.5t44.5 -18.5h17q17 -29 46 -46.5t64 -17.5t64 17.5t45 46.5h18q26 0 44.5 18.5t18.5 44.5v114q0 58 52 100q65 54 102 130.5t37 163.5q0 103 -51 191
t-139 139t-191 51zM279.5 428q-14.5 0 -25 10.5t-10.5 25.5t10.5 25.5t25 10.5t25 -10.5t10.5 -25.5t-10.5 -25.5t-25 -10.5zM315 564v0q-1 -14 -11 -23.5t-24.5 -9.5t-24.5 9.5t-11 23.5v0v1v1v0v1v2q2 79 58.5 134.5t135.5 55.5q15 0 25.5 -10.5t10.5 -25.5t-10.5 -25.5
t-25.5 -10.5q-51 0 -87 -36t-36 -87zM633 67h-242q-13 0 -22 9t-9 22.5t9 22.5t22 9h242q13 0 22 -9t9 -22.5t-9 -22.5t-22 -9z" />
    <glyph glyph-name="fullscreenvedio" unicode="&#xe657;" 
d="M128 0h193q26 0 44.5 -18.5t18.5 -45.5q0 -26 -18.5 -45t-44.5 -19h-258q-26 0 -44 18q-19 20 -19 45v258q0 26 18.5 44.5t45.5 18.5q26 0 45 -18.5t19 -44.5v-193zM19 877q19 19 44 19h258q26 0 44.5 -18.5t18.5 -45.5q0 -26 -18.5 -45t-44.5 -19h-193v-193
q0 -26 -18.5 -44.5t-45.5 -18.5q-26 0 -45 18.5t-19 44.5v258q0 26 18 44h1zM896 0h-193q-26 0 -44.5 -19t-18.5 -45q0 -27 18.5 -45.5t44.5 -18.5h258q25 0 44 19q19 18 19 44v258q0 26 -19 44.5t-45 18.5q-27 0 -45.5 -18.5t-18.5 -44.5v-193zM1005 878q-18 18 -44 18
h-258q-26 0 -44.5 -19t-18.5 -45q0 -27 18.5 -45.5t44.5 -18.5h193v-193q0 -26 19 -44.5t45 -18.5q27 0 45.5 18.5t18.5 44.5v258q0 25 -19 44v1z" />
    <glyph glyph-name="loudvedio" unicode="&#xe658;" horiz-adv-x="1344" 
d="M214 534q-45 -19 -72 -59.5t-27 -90.5t27 -90.5t72 -60.5v301zM254 107q-108 10 -181 89.5t-73 187.5t73 187.5t181 89.5l492 230q29 13 55.5 -4t26.5 -48v-256q15 -4 25 -14q78 -77 78 -185t-78 -185q-10 -10 -25 -14v-256q0 -31 -27 -48q-14 -9 -30 -9q-13 0 -25 5z
M958.5 38q-23.5 0 -40.5 17t-17 40.5t17 39.5q51 50 78 114.5t27 134.5q0 145 -105 248q-17 17 -17 40.5t17 40.5t40.5 17t40.5 -17q67 -66 103 -151t36 -178t-36 -178t-103 -151q-17 -17 -40.5 -17zM1104.5 -106q-23.5 0 -40.5 16.5t-17 40.5t17 40q80 79 122.5 180.5
t42.5 212.5t-42.5 212.5t-122.5 180.5q-17 16 -17 39.5t16.5 40.5t40.5 17t41 -17q96 -95 147.5 -217t51.5 -256t-51.5 -256t-147.5 -217q-17 -17 -40.5 -17zM328 198l385 -180v732l-385 -180v-372z" />
    <glyph glyph-name="lowvedio" unicode="&#xe659;" horiz-adv-x="1344" 
d="M214 534q-45 -19 -72 -59.5t-27 -90.5t27 -90.5t72 -60.5v301zM254 107q-108 10 -181 89.5t-73 187.5t73 187.5t181 89.5l492 230q29 13 55.5 -4t26.5 -48v-256q15 -4 25 -14q78 -77 78 -185t-78 -185q-10 -10 -25 -14v-256q0 -31 -27 -48q-14 -9 -30 -9q-13 0 -25 5z
M328 198l385 -180v732l-385 -180v-372z" />
    <glyph glyph-name="mediumvedio" unicode="&#xe65a;" horiz-adv-x="1344" 
d="M214 534q-45 -19 -72 -59.5t-27 -90.5t27 -90.5t72 -60.5v301zM254 107q-108 10 -181 89.5t-73 187.5t73 187.5t181 89.5l492 230q29 13 55.5 -4t26.5 -48v-256q15 -4 25 -14q78 -77 78 -185t-78 -185q-10 -10 -25 -14v-256q0 -31 -27 -48q-14 -9 -30 -9q-13 0 -25 5z
M958.5 38q-23.5 0 -40.5 17t-17 40.5t17 39.5q51 50 78 114.5t27 134.5q0 145 -105 248q-17 17 -17 40.5t17 40.5t40.5 17t40.5 -17q67 -66 103 -151t36 -178t-36 -178t-103 -151q-17 -17 -40.5 -17zM328 198l385 -180v732l-385 -180v-372z" />
    <glyph glyph-name="mutevedio" unicode="&#xe65b;" horiz-adv-x="1344" 
d="M214 534q-45 -19 -72 -59.5t-27 -90.5t27 -90.5t72 -60.5v301zM254 107q-108 10 -181 89.5t-73 187.5t73 187.5t181 89.5l492 230q29 13 55.5 -4t26.5 -48v-910q0 -31 -27 -48q-14 -9 -30 -9q-13 0 -25 5zM328 198l385 -180v732l-385 -180v-372zM1088 471l-87 87
q-18 18 -43.5 18t-43.5 -18t-18 -43.5t18 -43.5l87 -87l-87 -87q-18 -18 -18 -43.5t18 -43.5t43.5 -18t43.5 18l87 87l87 -87q18 -18 43.5 -18t43.5 18t18 43.5t-18 43.5l-87 87l87 87q18 18 18 43.5t-18 43.5t-43.5 18t-43.5 -18z" />
    <glyph glyph-name="nextvedio" unicode="&#xe65c;" 
d="M0 851q0 26 21.5 39t43.5 0l717 -467q23 -13 23 -39t-23 -39l-717 -467q-22 -13 -43.5 0t-21.5 39v934zM878 822q0 31 21 52.5t51.5 21.5t52 -21.5t21.5 -52.5v-876q0 -31 -21.5 -52.5t-51.5 -21.5t-51.5 21.5t-21.5 52.5v876z" />
    <glyph glyph-name="playvedio" unicode="&#xe65d;" 
d="M193 817q0 23 19.5 35t39.5 1l652 -433q20 -12 20 -36t-20 -36l-652 -433q-20 -11 -39.5 1t-19.5 35v866z" />
    <glyph glyph-name="quitfullscreenvedio" unicode="&#xe65e;" horiz-adv-x="1025" 
d="M365 238q-18 18 -44 18h-258q-26 0 -44.5 -19t-18.5 -45q0 -27 18.5 -45.5t44.5 -18.5h193v-193q0 -26 19 -44.5t45 -18.5q27 0 45.5 18.5t18.5 44.5v258q0 25 -19 44v1zM256 640h-193q-26 0 -44.5 -19t-18.5 -45q0 -27 18.5 -45.5t44.5 -18.5h258q25 0 44 19
q19 18 19 44v258q0 26 -19 44.5t-45 18.5q-27 0 -45.5 -18.5t-18.5 -44.5v-193zM659 237q19 19 44 19h258q26 0 44.5 -18.5t18.5 -45.5q0 -26 -18.5 -45t-44.5 -19h-193v-193q0 -26 -18.5 -44.5t-45.5 -18.5q-26 0 -45 18.5t-19 44.5v258q0 26 18 44h1zM768 640h193
q26 0 44.5 -18.5t18.5 -45.5q0 -26 -18.5 -45t-44.5 -19h-258q-26 0 -44 18q-19 20 -19 45v258q0 26 18.5 44.5t45.5 18.5q26 0 45 -18.5t19 -44.5v-193z" />
    <glyph glyph-name="pausevedio" unicode="&#xe65f;" 
d="M279.5 849q-38.5 0 -66 -27t-27.5 -66v-744q0 -39 27.5 -66t66 -27t65.5 27t27 66v744q0 39 -27 66t-65.5 27zM744.5 849q-38.5 0 -65.5 -27t-27 -66v-744q0 -39 27 -66t65.5 -27t66 27t27.5 66v744q0 39 -27.5 66t-66 27z" />
    <glyph glyph-name="reuglarmodevedio" unicode="&#xe660;" horiz-adv-x="1408" 
d="M1280 896h-1152q-53 0 -90.5 -37.5t-37.5 -90.5v-768q0 -53 37.5 -90.5t90.5 -37.5h1152q53 0 90.5 37.5t37.5 90.5v768q0 53 -37.5 90.5t-90.5 37.5zM128 0v768h768v-768v0h-768zM1280 0h-256v0v768h256v-768z" />
    <glyph glyph-name="theatermodevedio" unicode="&#xe661;" horiz-adv-x="1408" 
d="M832 314h154l-84 -77q-19 -19 -19 -45t19.5 -45t45 -19t44.5 19l198 192q20 19 20 45t-20 45l-198 192q-19 19 -47 19t-43 -19q-19 -19 -19 -47t19 -43l84 -77h-154q-28 0 -46 -19t-18 -45q0 -36 19 -56t45 -20zM410 154q19 -20 47 -20t42 20q19 19 19 47t-19 42l-83 77
h154q27 0 45.5 19.5t18.5 44.5q0 28 -19.5 46t-44.5 18h-154l83 77q19 19 19 44.5t-19 45t-44.5 19.5t-44.5 -20l-199 -192q-19 -19 -19 -44.5t19 -44.5zM1280 896h-1152q-53 0 -90.5 -37.5t-37.5 -90.5v-768q0 -53 37.5 -90.5t90.5 -37.5h1152q53 0 90.5 37.5t37.5 90.5
v768q0 53 -37.5 90.5t-90.5 37.5zM1280 0h-1152v768h1152v-768z" />
    <glyph glyph-name="qzone1" unicode="&#xe6d3;" 
d="M171 896h682q70 0 120 -50t50 -121v-682q0 -70 -50 -120t-120 -50h-682q-71 0 -121 50t-50 120v682q0 71 50 121t121 50zM844 470v4.5t-2 0.5q-4 -1 -6 -1h-196l-30 51l-81 154h-13l-73 -154l-25 -51h-230v-4l42 -30l115 -102l-25 -235q0 -6 2 -7.5t15 -1.5l192 120
l187 -120q7 0 8.5 1.5t4.5 7.5l-38 235l111 93zM503 274l196 -39h-328l217 175l-204 30h307z" />
    <glyph glyph-name="copylink" unicode="&#xe6d4;" 
d="M171 896h682q71 0 121 -50t50 -121v-682q0 -71 -50 -121t-121 -50h-682q-71 0 -121 50t-50 121v682q0 71 50 121t121 50zM626 270q10 10 10 24t-10 24l-11 11l15 15l93 -93l-78 -78l-93 93l15 15l11 -11q10 -10 24 -10t24 10zM418.5 477.5q-9.5 -9.5 -9.5 -24t10 -24.5
l10 -10l-15 -16l-93 94l78 78l94 -93l-16 -15l-10 10q-10 10 -24.5 10t-24 -9.5zM796 275l-142 141q-10 10 -24 10t-24 -10l-39 -39l-42 42l40 39q10 10 10 24t-10 24l-142 141q-10 10 -24 10t-24 -10l-126 -126q-10 -10 -10 -24t10 -24l141 -142q10 -9 24.5 -9t23.5 9
l39 40l42 -42l-39 -39q-10 -10 -10 -24t10 -24l141 -142q10 -10 24 -10t24 10l127 127q10 10 9.5 24t-9.5 24v0z" />
    <glyph glyph-name="sina1" unicode="&#xe6d5;" 
d="M171 896h682q71 0 121 -50t50 -121v-682q0 -71 -50 -121t-121 -50h-682q-71 0 -121 50t-50 121v682q0 71 50 121t121 50zM448 363q-31 -4 -52.5 -17.5t-30 -30.5t-12.5 -33.5t-4 -27.5l1 -11q0 -4 1 -10t8 -19.5t21 -21.5q49 -24 94 -14t72 44q15 18 17 44t-8 50
t-38 38.5t-69 8.5zM422 218q-15 -4 -26.5 4t-11.5 21t10.5 24t23.5 15q18 3 28.5 -6.5t10.5 -23.5q3 -13 -8 -23.5t-27 -10.5zM486 273q-14 -7 -21 0q-4 3 -3 10.5t7 10.5q15 8 22 0q6 -3 4 -10.5t-9 -10.5zM708 393q-11 1 -14.5 6.5t-0.5 10.5l2 4q3 5 6.5 12.5t3 27
t-13.5 32.5q-11 11 -28.5 14.5t-35 1t-33 -7t-25.5 -8.5l-10 -4q-23 -8 -25.5 1t4.5 29q0 12 -2 22t-9 20.5t-18 16t-31 5.5t-47 -9q-26 -9 -54 -27.5t-48.5 -38t-37.5 -37.5t-26 -30l-9 -12q-25 -34 -37.5 -68t-13.5 -51v-17q4 -46 30 -80t65.5 -53t79.5 -28.5t85 -13.5
q57 -4 119 9.5t116 47t77 79.5q12 28 11.5 52t-9 39.5t-22.5 27.5t-26 17.5t-23 9.5zM474 149q-84 -3 -142.5 33.5t-58.5 90.5q0 57 58.5 97.5t142.5 43.5t142 -29.5t58 -85.5q0 -58 -59 -102t-141 -48zM764 435q6 0 11.5 5.5t5.5 11.5q5 35 -3.5 58.5t-24 31.5t-31.5 12
t-28 2l-11 -1q-7 0 -12 -5.5t-5 -12t5 -11.5t12 -5q22 4 37 -0.5t20 -15t7 -21.5t1 -19l-1 -8q0 -10 5 -16t12 -6zM751 653q-17 4 -37 4t-37.5 -2t-19.5 -2h-4q-22 -7 -22 -26q0 -9 8 -17t18 -8q13 0 26 4q2 3 18.5 1t36 -6t42 -19.5t35.5 -39.5q6 -14 9 -28t3 -24.5
t-0.5 -18.5t-2 -13t-1.5 -6q-4 -13 -4 -25q0 -10 8 -18t18 -8q8 0 11.5 1t7.5 5.5t6 14.5q17 43 14.5 78t-13.5 61t-32 45t-43 30t-45 17z" />
    <glyph glyph-name="qq" unicode="&#xe6d6;" 
d="M171 896h682q71 0 121 -50t50 -121v-682q0 -71 -50 -121t-121 -50h-682q-71 0 -121 50t-50 121v682q0 71 50 121t121 50zM516 657h-9l-8 -1l-8 -2l-8 -1l-8 -1l-8 -2l-7 -3l-8 -2l-7 -2l-7 -4l-6 -2l-6 -4l-7 -4l-5 -3l-6 -5l-5 -4l-7 -7l-6 -6l-6 -6l-5 -6l-5 -6l-4 -6
l-5 -6l-2 -3l-1 -3l-4 -6l-3 -6l-3 -6l-3 -5l-2 -6l-2 -5l-2 -5l-2 -5l-2 -9l-2 -8l-1 -7l-1 -6v-12l-2 -2l-1 -3l-2 -2l-1 -2l-1 -6l-1 -4l-1 -5v-3v-3l-4 -5l-2 -5l-2 -4l-1 -5l-1 -4l-1 -3v-10v-2l1 -4l1 -4l-2 -1l-5 -4l-7 -6l-4 -4l-5 -3l-2 -3l-3 -3l-5 -5l-5 -6
l-4 -4l-4 -7l-5 -6l-4 -7l-4 -6l-3 -7l-3 -6l-2 -6l-3 -6l-1 -6l-2 -7l-2 -5l-1 -6l-1 -5l-1 -6v-10v-14v-4l2 -7v-3l1 -4l1 -3l1 -2l2 -4l1 -1l1 -1l1 -1h1l4 1l4 1l4 1l4 3l3 2l3 3l4 3l3 3l2 3l3 4l2 2l2 3l3 5l1 3v1v1l1 1v1h1h1v0h1v-1l2 -7l2 -5l2 -6l2 -5l2 -5l3 -5
l2 -5l3 -4l3 -4l2 -4l6 -6l5 -6l5 -5l4 -4l5 -4l6 -5l2 -1l1 -1v-1v0h-1l-1 -1h-5l-4 -1h-4l-3 -1l-4 -1l-3 -1l-3 -2l-2 -1l-3 -1l-2 -1l-2 -1l-2 -2l-3 -3l-1 -2l-1 -1l-1 -4l-1 -2l-2 -3v-3v-4v-3v-2l-1 -2v-2l1 -3v-2l2 -3l1 -2l1 -2l1 -2l1 -1l2 -2l2 -2l4 -3l4 -2
l5 -3l5 -2l6 -2l6 -1l6 -2l7 -2l6 -1l7 -1l7 -1l14 -1h14h26h6h5l5 1h5l8 2l5 1l6 2l9 4l5 1l4 2l7 4l6 3l5 3l3 3h6l4 -1h8h7l2 -1l3 -1l4 -1l4 -2l9 -2l8 -3l9 -3l8 -2l9 -2l9 -1l8 -1l9 -1l8 -1h8h24l8 1h7l7 1l7 2l7 1l6 1l3 1l2 1l6 2l5 2l4 3l5 2l4 3l1 2l2 2l2 2l3 4
l1 1v2l1 2l1 2v2v1v3l-1 3l-1 2l-1 3l-1 3l-2 2l-2 2l-3 2l-5 5l-5 4l-6 3l-6 3l-14 7l-3 2l-1 1l-1 1l7 6l3 3l2 3l5 7l4 7l4 6l3 5l5 12l4 9l2 7l2 2v2l2 1h1v0l3 -7l4 -7l2 -3l2 -4l2 -4l3 -4l3 -2l1 -2l2 -1l1 -1l2 -1l2 -1l2 -1h2l2 1l1 1h3l1 2l2 2l2 2l1 1l2 3l1 2
l1 3l1 3l2 6l1 7l1 8l1 4v13l-1 9l-1 10l-2 10l-2 5l-1 5l-2 5l-2 6l-2 5l-3 6l-4 9l-4 8l-3 7l-4 7l-4 6l-2 5l-6 9l-8 11l-1 2l-1 1v1l1 4l2 3l1 7l1 3v4l1 3v2l-1 4v2l-1 6l-2 5l-1 5l-2 4l-2 4l-2 4l-2 3l-3 6l-2 1v2l-1 10l-1 6l-1 9l-2 8l-3 9l-1 6l-1 4l-2 6l-2 5
l-1 6l-3 5l-5 11l-2 5l-4 6l-3 5l-3 6l-5 5l-4 5l-4 6l-5 4l-5 5l-5 5l-3 2l-3 2l-6 4l-7 5l-7 4l-8 4l-8 3l-8 3l-8 3l-8 2l-8 2l-9 2l-8 2l-8 1l-9 1l-8 1h-25z" />
    <glyph glyph-name="wechat1" unicode="&#xe6d7;" 
d="M171 896h682q71 0 121 -50t50 -121v-682q0 -71 -50 -121t-121 -50h-682q-71 0 -121 50t-50 121v682q0 71 50 121t121 50zM836 318q0 71 -59 121.5t-137 50.5q-83 0 -140 -50.5t-57 -121.5t57 -121t140 -50q23 0 69 12l63 -36l-17 59q40 31 60.5 61.5t20.5 74.5z
M576.5 334q-10.5 0 -18 7.5t-7.5 18t7.5 18t18 7.5t17.5 -7.5t7 -18t-7 -18t-17.5 -7.5zM702.5 334q-10.5 0 -18 7.5t-7.5 18t7.5 18t18 7.5t18 -7.5t7.5 -18t-7.5 -18t-18 -7.5zM414 667q-95 0 -163 -58.5t-68 -142.5q0 -93 93 -159l-23 -72l80 42q59 -12 81 -12q10 0 22 1
q-7 25 -7 49q0 78 57 132.5t139 54.5q10 0 22 -1q-15 71 -81.5 118.5t-151.5 47.5zM334 509q-13 0 -22 9t-9 22t9 22t22 9t22 -9t9 -22t-9 -22t-22 -9zM486 509q-13 0 -22 9t-9 22t9 22t22 9t22 -9t9 -22t-9 -22t-22 -9z" />
    <glyph glyph-name="play_details" unicode="&#xe6d8;" 
d="M64 823q-29 0 -46.5 -17.5t-17.5 -45.5v-752q0 -28 17.5 -45.5t46.5 -17.5h896q29 0 46.5 17.5t17.5 45.5v752q0 28 -17.5 45.5t-46.5 17.5h-896zM896 71h-768v626h768v-626zM704 384l-256 -188v376z" />
    <glyph glyph-name="comments_details" unicode="&#xe6d9;" 
d="M960 896h-896q-29 0 -46.5 -17.5t-17.5 -46.5v-704q0 -29 17.5 -46.5t46.5 -17.5h365l237 -179q25 -13 38 -13q19 0 32 6q32 22 32 58v128h192q29 0 46.5 17.5t17.5 46.5v704q0 29 -17.5 46.5t-46.5 17.5zM896 192h-192q-29 0 -46.5 -17.5t-17.5 -46.5v-70l-154 121
q-9 7 -19 7h-339v575h768v-569v0zM256 512h512v128h-512v-128zM256 320h512v128h-512v-128z" />
    <glyph glyph-name="thumbsdown_clicked" unicode="&#xe6da;" 
d="M13 297q2 -2 6 -8t6 -8.5t6.5 -7.5t7.5 -7t7 -5t8.5 -4.5t8.5 -1.5h321l-74 -226q-5 -23 5 -44t31 -32l79 -73q16 -8 33 -8q15 0 32 8.5t26 20.5l269 367h169q29 0 49.5 20t20.5 49v491q0 28 -20.5 48t-49.5 20h-694q-23 0 -41.5 -13t-25.5 -34l-189 -491q-4 -10 -4 -21
q0 -23 13 -40v0z" />
    <glyph glyph-name="thumbsdown_normal" unicode="&#xe6db;" 
d="M960 896h-717q-19 0 -36.5 -12.5t-27.5 -32.5l-173 -525q-6 -19 7 -57q8 -13 13 -19.5t14 -13t18 -6.5h300l-70 -211q-5 -19 4 -40t28 -30l134 -71q24 -9 46.5 -4t37.5 24l256 345h166q29 0 46.5 17.5t17.5 46.5v525q0 28 -19.5 46t-44.5 18zM723 352l-249 -333l-39 19
l64 256q9 26 -13 58q-8 6 -19 6t-24.5 -3t-20.5 -3h-243l122 422h422v-422zM902 352h-57v422h57v-422z" />
    <glyph glyph-name="link_share" unicode="&#xe6dc;" 
d="M707 189q17 17 17 41t-17 41l-18 19l26 26l160 -160l-135 -134l-160 159l26 26l19 -18q16 -17 41 -17t41 17zM352 544q-17 -17 -17 -41t17 -41l18 -19l-26 -26l-160 160l135 134l160 -159l-26 -26l-19 18q-17 17 -41 17t-41 -17v0zM998 197l-242 242q-17 17 -41 17
t-41 -17l-68 -67l-71 71l67 67q17 18 17 42t-17 41l-242 242q-17 17 -41 17t-41 -17l-217 -217q-17 -17 -17 -41v0q0 -24 17 -41l242 -242q17 -17 41.5 -17t40.5 17l68 67l71 -72l-67 -67q-17 -16 -17 -40v-1q0 -24 17 -41l242 -242q17 -17 41 -17t41 17l217 216
q17 18 17 42t-17 41v0z" />
    <glyph glyph-name="close_popover" unicode="&#xe6dd;" 
d="M1008 -35l-419 420l418 418q16 16 16 38.5t-15.5 38t-38 15.5t-38.5 -16l-418 -418l-420 419q-16 16 -38.5 16t-38 -16t-15.5 -38t15 -38l420 -420l-420 -420q-16 -16 -16 -38.5t16 -38t38 -15.5t38 16l420 420l420 -420q15 -15 37.5 -15t38.5 15.5t16 38t-16 38.5v0z
" />
    <glyph glyph-name="enlarge_pic" unicode="&#xe6e4;" 
d="M975 6l-85 85l-1 0.5t-2 0.5q101 129 101 294v0q0 97 -37.5 185.5t-101.5 152.5t-153 102t-186 38t-185.5 -38t-152.5 -102t-102 -152.5t-38 -185.5t38 -186t102 -153t152.5 -101.5t185.5 -37.5v0q164 0 294 101q0 -1 0.5 -2t1.5 -1l84 -85q18 -17 42.5 -17t42 17.5
t17.5 42t-17 42.5v0zM510 27v0q-97 0 -179.5 48t-130.5 130.5t-48 180.5v0v0q0 97 48 179.5t130.5 130.5t180 48t180 -48t130.5 -130.5t48 -179.5v0q0 -98 -48 -180.5t-130.5 -130.5t-180.5 -48v0zM633 446h-63v62q0 24 -16.5 40.5t-40.5 16.5h-6q-23 0 -39.5 -16.5
t-17.5 -40.5v-62h-62q-24 0 -40.5 -17t-16.5 -40v-6q0 -23 16.5 -40t40.5 -17h62v-63q0 -23 17 -40t40 -17h6q24 0 40.5 17t16.5 40v63h63q23 0 40 17t17 40v6q0 23 -17 40t-40 17v0z" />
    <glyph glyph-name="next_pic" unicode="&#xe6e6;" 
d="M878 823q0 29 20.5 51t52.5 22q29 0 51 -20.5t22 -52.5v-878q0 -29 -20.5 -51t-52.5 -22q-29 0 -51 20.5t-22 52.5v878zM702 435l-541 439q-33 22 -81 22h-7q-33 0 -53 -20t-20 -53v-878q0 -29 20.5 -51t52.5 -22h7q48 0 81 22l541 439q29 19 29 51t-29 51zM146 99v570
l351 -285z" />
    <glyph glyph-name="follow_wenda" unicode="&#xe6e7;" horiz-adv-x="1365" 
d="M683 -128q-90 0 -180 28t-163 73.5t-138 102t-108.5 113.5t-68.5 108.5t-25 86.5t25 86.5t68.5 108.5t108.5 113.5t138 102t163 73.5t180 28q91 0 182 -28t164 -73t137 -101t107 -113t67.5 -109t24.5 -88t-24.5 -88t-67.5 -109t-107 -113t-137 -101t-164 -73t-182 -28z
M172 384q7 -25 36 -65t78.5 -88t108.5 -90t136 -70t152 -28q77 0 156 28.5t138.5 71t108.5 90.5t76.5 88t31.5 63q-4 23 -31.5 63t-76.5 88t-108.5 90.5t-138.5 71t-156 28.5q-75 0 -152 -28t-136 -70t-108.5 -90t-78.5 -88t-36 -65zM683 128q-106 0 -181 75t-75 181t75 181
t180.5 75t181 -75t75.5 -181t-75.5 -181t-180.5 -75v0zM682.5 469q-35.5 0 -60.5 -25t-25 -60t25 -60t60.5 -25t60.5 25t25 60t-25 60t-60.5 25z" />
    <glyph glyph-name="share_wenda" unicode="&#xe6e8;" horiz-adv-x="1316" 
d="M876 115v85v1q0 26 -18 46t-44 23q-48 6 -117 6q-308 0 -504 -116q42 96 112 165q173 172 501 172v0q29 0 49.5 20.5t20.5 49.5v1v85l267 -269l-267 -269v0zM1296 434l-438 441q-9 9 -24 15t-27 6q-29 0 -50 -20.5t-22 -50.5v-188q-337 -18 -531 -212q-57 -57 -99 -127.5
t-61 -125.5t-30 -113.5t-12.5 -80t-1.5 -36.5q0 -29 21 -49.5t50 -20.5v0v0q17 0 35 10.5t27 25.5q29 51 76 91.5t103.5 64t113.5 39.5t118.5 22t105 8t85.5 0v-190q0 -22 12.5 -40t32.5 -26q13 -5 27 -5q12 0 27 6t24 15l438 441q9 9 15 23.5t6 26.5t-6 26.5t-15 23.5v0z
" />
    <glyph glyph-name="answer_big_wenda" unicode="&#xe6e9;" 
d="M61 -128l58 60l214 28l595 596q21 21 36 58t15 67.5t-15 67.5t-36.5 58.5t-58 37t-67.5 15.5v0q-74 0 -126 -52l-6 -6l-93 94l-253 -254l63 -63l190 191l31 -31l-527 -527l-24 -216l-57 -59zM281 24l-147 -18l16 148l521 519l130 -129l-520 -520v0zM861 591l-6 -7
l-143 143l6 6q12 12 33 20.5t38 8.5h1v0q42 0 71 -29t29 -71v0v-1q0 -17 -8.5 -37.5t-20.5 -32.5zM490 -39h534v-89h-534v89z" />
    <glyph glyph-name="answer_small_wenda" unicode="&#xe6ea;" 
d="M306 47l-166 -33l29 170l467 464l138 -137zM870 743q12 -12 20 -32t8 -36v0q0 -41 -28 -68l-7 -7l-138 136l7 7q12 11 32 19.5t37 8.5t37 -8.5t32 -19.5v0zM959 831q-28 27 -74 46t-84 19t-84.5 -19t-73.5 -46l-577 -573q-14 -14 -18 -33l-47 -280q-1 -5 -1 -10
q0 -26 18.5 -44.5t44.5 -18.5q6 0 12 1l274 55q19 4 33 17l577 573q27 26 46 72t19 84v1q0 92 -65 156z" />
    <glyph glyph-name="delete_cell" unicode="&#xe6eb;" horiz-adv-x="1152" 
d="M685 102q29 0 46.5 18t17.5 46v320q0 26 -18 45t-46 19h-7q-25 0 -44.5 -18t-19.5 -46v-320q5 -28 25.5 -46t45.5 -18zM1088 710h-230v141q-5 20 -20 32.5t-38 12.5h-448q-24 0 -37.5 -12.5t-13.5 -32.5v-141h-237q-29 0 -46.5 -17.5t-17.5 -46.5q0 -24 20 -44t44 -20
h115q-6 0 -6 -19l51 -633q0 -24 19.5 -41t44.5 -17h576q25 0 44.5 17t19.5 41l51 633q0 19 -6 26h115q29 0 46.5 17.5t17.5 46.5q0 23 -19.5 40t-44.5 17zM410 787h326v-77h-326v77zM845 570l-45 -576h-448l-45 576q0 12 -6 19h550q0 -3 -3 -9.5t-3 -9.5zM461 102
q29 0 46.5 18t17.5 46v320q0 26 -18 45t-46 19q-25 0 -44.5 -18t-19.5 -46v-320q5 -28 22.5 -46t41.5 -18z" />
    <glyph glyph-name="add" unicode="&#xe6ec;" 
d="M444 452h-205q-27 0 -47.5 -19t-20.5 -49q0 -31 18.5 -49.5t49.5 -18.5h205v-205q0 -27 19 -47.5t49 -20.5q31 0 49.5 18.5t18.5 49.5v205h205q27 0 47.5 19t20.5 49q0 31 -18.5 49.5t-49.5 18.5h-205v205q0 27 -19 47.5t-49 20.5q-31 0 -49.5 -18.5t-18.5 -49.5v-205z
" />
    <glyph glyph-name="friended" unicode="&#xe6ed;" 
d="M393 17v0q-22 0 -40 15l-206 177q-22 19 -22 48q0 11 4 22q7 18 22.5 29t35.5 12h650q26 0 44 -18.5t18 -44.5t-18 -44.5t-44 -18.5h-482l78 -67q20 -17 22 -42.5t-14 -45.5q-19 -22 -48 -22v0zM837 468v0l-650 1q-26 0 -44 18t-18 44v1v0q0 26 18 44t44 18v0h482l-78 67
q-22 19 -22 47q0 23 15 41q18 22 47 22q23 0 40 -15l206 -178q22 -18 22 -47q0 -12 -4 -22q-7 -18 -22.5 -29.5t-35.5 -11.5v0z" />
    <glyph glyph-name="accountnumber" unicode="&#xe6ef;" horiz-adv-x="1280" 
d="M128 870q18 11 46 18.5t49 7.5h842q48 0 94 -26l-515 -513zM62 804l546 -544q15 -14 36 -13h3q19 0 32 13l546 544q27 -46 27 -94v-652q0 -77 -55 -131.5t-133 -54.5h-841q-78 0 -132.5 54.5t-54.5 131.5v652q0 48 26 94z" />
    <glyph glyph-name="phone" unicode="&#xe6f0;" 
d="M140 803q0 39 27 66t65 27h558q39 0 66 -27t27 -66v-838q0 -39 -27.5 -66t-65.5 -27h-558q-38 0 -65 27t-27 66v838v0zM233 803v-652h557v652h-557zM511 -58q29 0 49.5 20.5t20.5 49.5t-20.5 49t-49.5 20t-49 -20t-20 -49t20 -49.5t49 -20.5v0z" />
    <glyph glyph-name="qq1" unicode="&#xe6f1;" 
d="M289 -36q-50 -12 -72 -29t-22 -33q0 -14 36.5 -17.5t117.5 -3.5h13q91 0 133 7q11 2 30 1q42 -8 137 -8h14q41 0 61 0.5t45.5 2.5t36 6.5t10.5 12.5q0 14 -22 31.5t-71 28.5q29 23 50 52.5t30 55.5t14 48.5t5 36.5v13q7 -12 18.5 -29.5t35 -47.5t34.5 -33q3 -1 6 4
t4.5 14.5t2 22t-1 29t-4.5 34.5q-4 26 -11 51.5t-12 38.5l-4 12q-24 72 -37 107l-39 91q1 6 1.5 16.5t-1 42t-5.5 61.5t-15.5 70.5t-29 75t-48 68t-69.5 55.5q-25 11 -35 14q-127 49 -261 -13q-53 -30 -90.5 -81t-52 -102.5t-21 -98.5t-5.5 -77l2 -30q-27 -60 -39 -91
l-37 -107q-17 -43 -27 -102q-3 -18 -4.5 -34.5t-1 -29t2 -22t4.5 -14.5t6 -4q11 3 33 30.5t38.5 53t16.5 26.5v-14t5 -35t14 -50t30 -54.5t51 -52.5v0z" />
    <glyph glyph-name="wechat11" unicode="&#xe6f2;" horiz-adv-x="1266" 
d="M374 888q-88 -16 -160.5 -59t-117 -101t-65 -127.5t-12.5 -137.5t48.5 -132.5t110.5 -110.5h1q11 -7 10 -16.5t-17 -59.5q-1 -3 -2 -4l-20 -62l73 40l74 39l39 -9q69 -18 127 -18h21l-7 28q-21 78 2.5 155t78 135t138.5 94.5t178 36.5h35l-7 25q-28 97 -108.5 170
t-192.5 104t-227 10zM342 703q29 -20 30.5 -54.5t-26.5 -52.5q-21 -14 -45 -11t-38 18.5t-18.5 37t11.5 44.5q13 20 40 25.5t46 -7.5v0zM653 703q22 -15 27 -39.5t-4.5 -44.5t-31 -30t-47.5 -1q-25 10 -36 33t-3.5 47t30.5 37q14 7 33 6.5t32 -8.5v0zM793 547
q-135 -25 -219.5 -118t-79.5 -211q3 -62 32.5 -118t77.5 -95.5t110.5 -65.5t132 -28.5t141.5 15.5l28 7l59 -32q59 -32 61 -29q1 3 -14 51l-3 9q-12 35 -11 42.5t16 18.5q2 2 4 3q68 49 99 116t23.5 133t-45.5 128.5t-97.5 106t-142.5 63.5t-172 4zM786 376q12 -8 17 -25
t0 -32q-11 -31 -45.5 -32.5t-47.5 28.5q-14 34 15 57.5t61 3.5zM1038 371q19 -18 16.5 -43t-24.5 -36q-33 -18 -59.5 7.5t-8.5 58.5q11 21 35 25.5t41 -12.5z" />
    <glyph glyph-name="weibo" unicode="&#xe6f3;" horiz-adv-x="1267" 
d="M936 408q-9 2 -12 3.5t-8 5.5t-3.5 8.5t3.5 14.5q31 79 0 124q-32 43 -106.5 42.5t-171.5 -40.5q-2 -1 -4.5 -2t-9 -2.5t-10 0t-7 5t0.5 13.5q32 101 -13 146q-52 52 -172 5t-237 -165q-89 -89 -137.5 -180t-48.5 -171q0 -75 45 -139t119.5 -105.5t167.5 -65t191 -23.5
q122 0 230 33t179.5 85t113 114.5t41.5 122.5q0 65 -44 108t-107 63zM523.5 -44q-101.5 -10 -191 14.5t-145 76t-62 118.5t38 129t127 103t184 51.5t191 -14t145 -76.5t62 -118.5t-38 -128.5t-127 -103.5t-184 -51.5zM1161 786q-41 45 -112.5 77.5t-132.5 32.5q-35 0 -69 -8
q-15 -3 -26 -17t-11 -29q0 -20 14.5 -34t33.5 -14q5 0 9 1q24 5 49 5q43 0 94 -23t80 -55q25 -28 43 -74t18 -84q0 -37 -12 -72v0q-2 -8 -2 -15q0 -15 9.5 -28t23.5 -18q7 -2 15 -2q14 0 27.5 9.5t17.5 23.5v0q16 50 16 102q0 53 -25 118t-60 104zM1017 488q6 -2 13 -2
q12 0 23.5 8.5t15.5 19.5q8 25 8 50.5t-12.5 57t-29.5 50.5q-20 22 -54.5 38t-64.5 16q-17 0 -34 -4q-13 -3 -22.5 -15t-9.5 -25q0 -17 12 -29.5t29 -12.5q4 0 8 1v0q9 2 17 2q14 0 31.5 -7.5t26.5 -18.5q31 -34 17 -77q-6 -16 2 -31.5t24 -20.5v0zM544 344
q-73 19 -146.5 -13t-105.5 -97q-33 -67 -4.5 -131.5t102.5 -88.5q77 -25 155.5 8.5t110.5 105.5q31 70 -2 133t-110 83zM469 118q-15 -24 -43 -33.5t-52 1.5t-30 35.5t9 47.5q15 24 42 33t51 -1q24 -11 31 -35t-8 -48zM534.5 202.5q-5.5 -9.5 -16 -13.5t-19.5 0t-11.5 13
t2.5 18t15.5 13t19.5 0q9 -3 12 -12t-2.5 -18.5z" />
  </font>
</defs>
</svg>
