<?xml version="1.0" encoding="UTF-8"?>
<svg width="30px" height="30px" viewBox="0 0 30 30" version="1.1" xmlns="http://www.w3.org/2000/svg" xmlns:xlink="http://www.w3.org/1999/xlink">
    <!-- Generator: Sketch 42 (36781) - http://www.bohemiancoding.com/sketch -->
    <title>add_vedio</title>
    <desc>Created with Sketch.</desc>
    <defs></defs>
    <g id="ugc发布器" stroke="none" stroke-width="1" fill="none" fill-rule="evenodd">
        <g id="发布初始状态" transform="translate(-692.000000, -552.000000)" fill="#CACACA">
            <g id="Group-8" transform="translate(692.000000, 552.000000)">
                <path d="M16,14 L16,0.998153687 C16,0.447365195 15.5522847,0 15,0 C14.4438648,0 14,0.446888627 14,0.998153687 L14,14 L0.998153687,14 C0.447365195,14 1.13686838e-13,14.4477153 1.13686838e-13,15 C1.13686838e-13,15.5561352 0.446888628,16 0.998153687,16 L14,16 L14,29.0018463 C14,29.5526348 14.4477153,30 15,30 C15.5561352,30 16,29.5531114 16,29.0018463 L16,16 L29.0018463,16 C29.5526348,16 30,15.5522847 30,15 C30,14.4438648 29.5531114,14 29.0018463,14 L16,14 Z" id="add_vedio"></path>
            </g>
        </g>
    </g>
</svg>