<?xml version="1.0" encoding="UTF-8"?>
<svg width="92px" height="62px" viewBox="0 0 92 62" version="1.1" xmlns="http://www.w3.org/2000/svg" xmlns:xlink="http://www.w3.org/1999/xlink">
    <!-- Generator: Sketch 42 (36781) - http://www.bohemiancoding.com/sketch -->
    <title>blocked_defaultpic</title>
    <desc>Created with Sketch.</desc>
    <defs></defs>
    <g id="Page-1" stroke="none" stroke-width="1" fill="none" fill-rule="evenodd">
        <g id="粉丝列表无数据" transform="translate(-510.000000, -628.000000)">
            <g id="Group-11" transform="translate(510.000000, 628.000000)">
                <g id="blocked_defaultpic">
                    <rect id="Rectangle-4" fill="#F4F5F6" x="13" y="1" width="66" height="60"></rect>
                    <path d="M26.248,55.4961 C26.206,55.4961 26.163,55.4911 26.121,55.4791 C25.853,55.4101 25.694,55.1371 25.764,54.8691 C27.09,49.8071 30.075,45.5721 33.951,43.2531 C34.189,43.1091 34.495,43.1891 34.637,43.4251 C34.779,43.6621 34.702,43.9691 34.465,44.1101 C30.811,46.2981 27.992,50.3111 26.731,55.1231 C26.672,55.3481 26.47,55.4961 26.248,55.4961 Z" id="Fill-1" fill="#D6DADD"></path>
                    <path d="M65.9304003,56 C65.6960623,56 65.4828358,55.8437746 65.4205568,55.6062699 C64.0894746,50.5278904 61.1138038,46.2908055 57.2567266,43.9812037 C57.0065549,43.8323673 56.9252755,43.5083053 57.0751674,43.2581336 C57.2250593,43.0079619 57.5491213,42.9235158 57.799293,43.0765744 C61.8907083,45.5244568 65.0416048,49.9948241 66.4412995,55.3381534 C66.5151898,55.621048 66.3473531,55.9092204 66.0644586,55.9820552 C66.0201244,55.9947221 65.9747346,56 65.9304003,56" id="Fill-15" fill="#D6DADD"></path>
                    <path d="M46,43.048 C38.28,43.048 32,36.757 32,29.024 C32,21.291 38.28,15 46,15 C53.72,15 60,21.291 60,29.024 C60,36.757 53.72,43.048 46,43.048" id="Path" fill="#FFFFFF"></path>
                    <path d="M46,16.004 C38.833,16.004 33.003,21.845 33.003,29.024 C33.003,36.203 38.833,42.043 46,42.043 C53.167,42.043 58.997,36.203 58.997,29.024 C58.997,21.845 53.167,16.004 46,16.004 M46,43.048 C38.28,43.048 32,36.757 32,29.024 C32,21.291 38.28,15 46,15 C53.72,15 60,21.291 60,29.024 C60,36.757 53.72,43.048 46,43.048" id="Fill-3" fill="#D6DADD"></path>
                    <path d="M12,61.7932044 C11.448,61.7932044 11,61.3473543 11,60.7957769 L11,1.99742747 C11,1.44585008 11.448,1 12,1 C12.552,1 13,1.44585008 13,1.99742747 L13,60.7957769 C13,61.3473543 12.552,61.7932044 12,61.7932044" id="Fill-5" fill="#D6DADD"></path>
                    <polygon id="Fill-7" fill="#D6DADD" points="27 52.523 29 52.523 29 2 27 2"></polygon>
                    <path d="M46,61.95 C45.448,61.95 45,61.503 45,60.95 L45,2 C45,1.447 45.448,1 46,1 C46.552,1 47,1.447 47,2 L47,60.95 C47,61.503 46.552,61.95 46,61.95" id="Fill-9" fill="#D6DADD"></path>
                    <polygon id="Fill-10" fill="#D6DADD" points="63 52.574 65 52.574 65 2 63 2"></polygon>
                    <path d="M79,61.7932044 C78.448,61.7932044 78,61.3473543 78,60.7957769 L78,1.99742747 C78,1.44585008 78.448,1 79,1 C79.552,1 80,1.44585008 80,1.99742747 L80,60.7957769 C80,61.3473543 79.552,61.7932044 79,61.7932044" id="Fill-11" fill="#D6DADD"></path>
                    <path d="M90.9018,2 L0.9998,2 C0.4478,2 -0.0002,1.553 -0.0002,1 C-0.0002,0.447 0.4478,0 0.9998,0 L90.9018,0 C91.4538,0 91.9018,0.447 91.9018,1 C91.9018,1.553 91.4538,2 90.9018,2" id="Fill-12" fill="#D6DADD"></path>
                    <path d="M90.9018,62 L0.9998,62 C0.4478,62 -0.0002,61.553 -0.0002,61 C-0.0002,60.447 0.4478,60 0.9998,60 L90.9018,60 C91.4538,60 91.9018,60.447 91.9018,61 C91.9018,61.553 91.4538,62 90.9018,62" id="Fill-13" fill="#D6DADD"></path>
                    <path d="M29.8994,52.8164 C28.0774,52.8164 26.5944,54.2984 26.5944,56.1214 C26.5944,57.9434 28.0774,59.4254 29.8994,59.4254 C31.7214,59.4254 33.2044,57.9434 33.2044,56.1214 C33.2044,54.2984 31.7214,52.8164 29.8994,52.8164" id="Path" fill="#FFFFFF"></path>
                    <path d="M29.8994,52.8164 C28.0774,52.8164 26.5944,54.2984 26.5944,56.1214 C26.5944,57.9434 28.0774,59.4254 29.8994,59.4254 C31.7214,59.4254 33.2044,57.9434 33.2044,56.1214 C33.2044,54.2984 31.7214,52.8164 29.8994,52.8164 M29.8994,60.4254 C27.5254,60.4254 25.5944,58.4954 25.5944,56.1214 C25.5944,53.7474 27.5254,51.8164 29.8994,51.8164 C32.2734,51.8164 34.2044,53.7474 34.2044,56.1214 C34.2044,58.4954 32.2734,60.4254 29.8994,60.4254" id="Fill-14" fill="#D6DADD"></path>
                    <path d="M62.3276,52.9063 C60.5056,52.9063 59.0226,54.3883 59.0226,56.2113 C59.0226,58.0333 60.5056,59.5153 62.3276,59.5153 C64.1496,59.5153 65.6326,58.0333 65.6326,56.2113 C65.6326,54.3883 64.1496,52.9063 62.3276,52.9063" id="Path" fill="#FFFFFF"></path>
                    <path d="M62.3276,52.9063 C60.5056,52.9063 59.0226,54.3883 59.0226,56.2113 C59.0226,58.0333 60.5056,59.5153 62.3276,59.5153 C64.1496,59.5153 65.6326,58.0333 65.6326,56.2113 C65.6326,54.3883 64.1496,52.9063 62.3276,52.9063 M62.3276,60.5153 C59.9536,60.5153 58.0226,58.5853 58.0226,56.2113 C58.0226,53.8373 59.9536,51.9063 62.3276,51.9063 C64.7016,51.9063 66.6326,53.8373 66.6326,56.2113 C66.6326,58.5853 64.7016,60.5153 62.3276,60.5153" id="Fill-16" fill="#D6DADD"></path>
                </g>
            </g>
        </g>
    </g>
</svg>