<?xml version="1.0" encoding="UTF-8"?>
<svg width="60px" height="60px" viewBox="0 0 60 60" version="1.1" xmlns="http://www.w3.org/2000/svg" xmlns:xlink="http://www.w3.org/1999/xlink">
    <!-- Generator: Sketch 41.2 (35397) - http://www.bohemiancoding.com/sketch -->
    <title>empty_fans</title>
    <desc>Created with Sketch.</desc>
    <defs>
        <path d="M0.302306647,37.6178 C5.61891097,43.6124536 13.3757787,47.396 22,47.396 C31.3335848,47.396 39.6518184,42.9638897 44.9598934,36.0932833 L44.9598934,0.699943304 C44.807508,0.502703802 44.6526419,0.307473637 44.4953421,0.1143 L0.302306647,0.1143 L0.302306647,37.6178 L0.302306647,37.6178 Z" id="path-1"></path>
    </defs>
    <g id="Page-1" stroke="none" stroke-width="1" fill="none" fill-rule="evenodd">
        <g id="粉丝列表无数据" transform="translate(-693.000000, -629.000000)">
            <g id="Group-9" transform="translate(693.000000, 628.000000)">
                <g id="empty_fans">
                    <g id="Group-5" transform="translate(0.000000, 0.603100)">
                        <path d="M30,59.3967 C14.01,59.3967 1,46.3877 1,30.3967 C1,14.4057 14.01,1.3967 30,1.3967 C45.99,1.3967 59,14.4057 59,30.3967 C59,46.3877 45.99,59.3967 30,59.3967" id="Fill-1" fill="#F4F6F7"></path>
                        <path d="M30,0.397 C13.431,0.397 0,13.828 0,30.397 C0,46.965 13.431,60.397 30,60.397 C46.568,60.397 60,46.965 60,30.397 C60,13.828 46.568,0.397 30,0.397 M30,2.397 C45.439,2.397 58,14.958 58,30.397 C58,45.836 45.439,58.397 30,58.397 C14.561,58.397 2,45.836 2,30.397 C2,14.958 14.561,2.397 30,2.397" id="Fill-3" fill="#D6DADD"></path>
                    </g>
                    <g id="Group-8" transform="translate(8.000000, 12.603100)">
                        <mask id="mask-2" fill="white">
                            <use xlink:href="#path-1"></use>
                        </mask>
                        <g id="Clip-7"></g>
                        <path d="M22.0001,0.1143 C14.4121,0.1143 10.7841,4.8573 10.7841,11.8983 C10.7841,17.3823 13.8371,22.6283 18.1111,24.6863 C18.4401,25.4673 18.7401,26.3053 18.8951,27.0633 C18.9281,27.2253 18.9541,27.3983 18.9771,27.5763 C14.4671,27.3353 10.7141,26.6623 10.7141,26.6623 C8.0691,26.6623 7.6061,28.0303 7.2241,29.7803 L4.3961,42.7183 L0.4541,60.7583 C-0.3889,64.6173 2.3631,68.0003 6.6301,68.0003 L38.6321,68.0003 C42.8991,68.0003 45.6511,64.6173 44.8081,60.7583 L40.6731,41.8413 L38.0381,29.7803 C37.6551,28.0303 37.1931,26.6623 34.5481,26.6623 C34.5481,26.6623 29.8641,27.3473 25.0041,27.5823 C25.0271,27.4373 25.0531,27.2943 25.0841,27.1533 C25.2471,26.4223 25.5871,25.5143 25.9521,24.6553 C30.1941,22.5763 33.2161,17.3553 33.2161,11.8983 C33.2161,4.8573 29.8811,0.1143 22.0001,0.1143 M22.0001,2.1143 C28.2011,2.1143 31.2161,5.3143 31.2161,11.8983 C31.2161,16.5043 28.6321,21.1143 25.0721,22.8593 C24.6411,23.0713 24.3011,23.4303 24.1131,23.8713 C23.6231,25.0203 23.3021,25.9513 23.1321,26.7193 C23.0921,26.9003 23.0581,27.0833 23.0291,27.2693 C22.9341,27.8643 23.1131,28.4693 23.5151,28.9173 C23.8951,29.3423 24.4371,29.5823 25.0041,29.5823 C25.0361,29.5823 25.0681,29.5823 25.1011,29.5803 C29.5751,29.3633 33.8331,28.7833 34.6881,28.6623 C35.7171,28.6683 35.7691,28.7683 36.0841,30.2073 L38.7191,42.2683 L42.8541,61.1853 C43.1231,62.4163 42.8741,63.5863 42.1541,64.4803 C41.3651,65.4603 40.1141,66.0003 38.6321,66.0003 L6.6301,66.0003 C5.1481,66.0003 3.8971,65.4603 3.1081,64.4803 C2.3881,63.5863 2.1391,62.4153 2.4081,61.1853 L6.3501,43.1453 L9.1781,30.2073 C9.4901,28.7823 9.5441,28.6703 10.5451,28.6623 C11.3701,28.8033 14.8001,29.3563 18.8701,29.5733 C18.9061,29.5753 18.9411,29.5763 18.9771,29.5763 C19.5311,29.5763 20.0621,29.3463 20.4411,28.9383 C20.8451,28.5043 21.0351,27.9143 20.9611,27.3263 C20.9321,27.0963 20.8971,26.8723 20.8541,26.6613 C20.6911,25.8673 20.3891,24.9423 19.9551,23.9113 C19.7661,23.4613 19.4191,23.0953 18.9791,22.8843 C15.3891,21.1563 12.7841,16.5353 12.7841,11.8983 C12.7841,7.4343 14.3831,2.1143 22.0001,2.1143" id="Fill-6" fill="#D6DADD" mask="url(#mask-2)"></path>
                    </g>
                </g>
            </g>
        </g>
    </g>
</svg>