<?xml version="1.0" encoding="UTF-8"?>
<svg width="38px" height="39px" viewBox="0 0 38 39" version="1.1" xmlns="http://www.w3.org/2000/svg" xmlns:xlink="http://www.w3.org/1999/xlink">
    <!-- Generator: Sketch 41.2 (35397) - http://www.bohemiancoding.com/sketch -->
    <title>notice_ic</title>
    <desc>Created with Sketch.</desc>
    <defs>
        <rect id="path-1" x="12.8896706" y="1.31420896" width="4.04951905" height="4.04951905" rx="2.02475953"></rect>
        <mask id="mask-2" maskContentUnits="userSpaceOnUse" maskUnits="objectBoundingBox" x="0" y="0" width="4.04951905" height="4.04951905" fill="white">
            <use xlink:href="#path-1"></use>
        </mask>
    </defs>
    <g id="Page-1" stroke="none" stroke-width="1" fill="none" fill-rule="evenodd">
        <g id="首页宽版-焦点图1" transform="translate(-1395.000000, -62.000000)" fill="#FFFFFF">
            <g id="Group-8" transform="translate(1385.000000, 50.000000)">
                <g id="notice_ic" transform="translate(31.312178, 29.700962) rotate(-30.000000) translate(-31.312178, -29.700962) translate(7.312178, 9.700962)">
                    <path d="M5.39966479,28.3466334 C5.00559919,28.3466334 5.47094068,28.2457561 5.39966479,28.1070498 L4.06344653,25.5340928 C4.05443463,25.5164979 4.04951905,25.4986098 4.04951905,25.4804284 L4.04951905,25.3270598 C4.04951905,25.1648937 4.42007179,26.1789351 4.87312434,26.1789351 L7.82714161,26.1789351 C8.28019416,26.1789351 8.96944028,26.016769 8.96944028,26.1789351 L8.6464048,28.0533855 C8.6464048,28.2152583 9.42249282,28.3466334 8.96944028,28.3466334 L5.39966479,28.3466334 Z" id="Fill-1" fill-opacity="0.3"></path>
                    <path d="M1.23213779,23.4077954 L1.01237976,22.2723548 C1.01237976,22.2723548 4.02922061,23.2333479 4.02922061,23.2333479 L4.02922061,24.6029101 C4.02922061,25.4216745 4.28221439,25.3035738 3.0018648,25.3035738 C1.7215152,25.3035738 1.23213779,24.2265598 1.23213779,23.4077954 Z" id="Fill-5" fill-opacity="0.3"></path>
                    <path d="M17.1638084,29.3586533 L9.17535956,25.9674713 C8.88060923,25.8428777 9.70050771,26.0577826 9.70050771,25.7367145 L9.68804438,23.3815599 C9.68804438,23.0604917 9.80681603,23.6514098 10.1015664,23.5260175 L17.0883635,25.7367145 C17.1876729,25.6943847 17.2631178,29.4009832 17.1638084,29.3586533 Z" id="Fill-9" fill-opacity="0.3"></path>
                    <path d="M4.81810375,26.3218738 C4.39307641,26.3218738 4.04951905,26.1935843 4.04951905,26.0355134 L4.04951905,23.571095 C4.04951905,23.4130241 4.39307641,23.2847346 4.81810375,23.2847346 L8.34283317,23.2847346 C8.76786051,23.2847346 9.11141787,23.4130241 9.11141787,23.571095 L9.11141787,26.0355134 C9.11141787,26.1935843 8.76786051,26.3218738 8.34283317,26.3218738 L4.81810375,26.3218738 Z" id="Fill-13" fill-opacity="0.3"></path>
                    <path d="M28.5664485,12.1485572 C28.3632981,12.1485572 28.159354,12.2255372 28.0054041,12.3802908 L23.5162547,16.8689398 C23.2075612,17.1776535 23.2075612,17.683182 23.5162547,17.9918957 C23.6709982,18.1458557 23.8741487,18.2228357 24.0772992,18.2228357 C24.2812432,18.2228357 24.4843937,18.1458557 24.6383436,17.9918957 L29.127493,13.5024531 C29.4361865,13.1937394 29.4361865,12.6890045 29.127493,12.3802908 C28.973543,12.2255372 28.769599,12.1485572 28.5664485,12.1485572" id="Fill-19"></path>
                    <path d="M20.2475953,20.247402 C21.3712993,20.279414 22.2723548,21.1958433 22.2723548,22.3355032 L22.2723548,23.2215877 C22.2723548,24.3550552 21.3788323,25.2776766 20.2475953,25.3096947 L20.2475953,24.0054628 C20.7816343,23.9741578 21.198836,23.5330719 21.198836,22.9935381 L21.198836,22.5635528 C21.198836,22.0211401 20.7782235,21.5829313 20.2475953,21.5516394 L20.2475953,20.247402 Z" id="Combined-Shape"></path>
                    <use id="Rectangle-2-Copy-2" stroke="#FFFFFF" mask="url(#mask-2)" stroke-width="2" fill-opacity="0.3" transform="translate(14.914430, 3.338968) rotate(-330.000000) translate(-14.914430, -3.338968) " xlink:href="#path-1"></use>
                    <rect id="Rectangle-2-Copy-3" transform="translate(22.642912, 38.481340) rotate(-330.000000) translate(-22.642912, -38.481340) " x="21.6305317" y="37.4689601" width="2.02475953" height="2.02475953" rx="1.01237976"></rect>
                    <path d="M17.210456,31.0028946 L17.210456,26.3748709 L20.2475953,26.3218738 L19.2236953,30.5269796 C19.2236953,30.7370008 19.565975,31.3837727 18.7290256,31.3837727 C17.8920763,31.3837727 17.210456,31.2129157 17.210456,31.0028946 Z" id="Fill-35" fill-opacity="0.3"></path>
                    <path d="M28.5664485,12.1485572 C28.3632981,12.1485572 28.159354,12.2255372 28.0054041,12.3802908 L23.5162547,16.8689398 C23.2075612,17.1776535 23.2075612,17.683182 23.5162547,17.9918957 C23.6709982,18.1458557 23.8741487,18.2228357 24.0772992,18.2228357 C24.2812432,18.2228357 24.4843937,18.1458557 24.6383436,17.9918957 L29.127493,13.5024531 C29.4361865,13.1937394 29.4361865,12.6890045 29.127493,12.3802908 C28.973543,12.2255372 28.769599,12.1485572 28.5664485,12.1485572" id="Fill-3"></path>
                    <path d="M33.6110081,21.259975 L27.1317777,21.259975 C26.6863306,21.259975 26.3218738,21.6244317 26.3218738,22.0698789 C26.3218738,22.515326 26.6863306,22.8797827 27.1317777,22.8797827 L33.6110081,22.8797827 C34.0564552,22.8797827 34.4209119,22.515326 34.4209119,22.0698789 C34.4209119,21.6244317 34.0564552,21.259975 33.6110081,21.259975" id="Fill-5"></path>
                    <path d="M24.1228772,25.3094941 C23.9080441,25.3094941 23.6923719,25.3908872 23.5295687,25.5545126 C23.2031232,25.8809243 23.2031232,26.4145949 23.5295687,26.7410066 L25.9028025,29.1139946 C26.0664449,29.27762 26.2812779,29.3590131 26.496111,29.3590131 C26.7117832,29.3590131 26.9266163,29.27762 27.0894195,29.1139946 C27.415865,28.7875829 27.415865,28.2539123 27.0894195,27.9275006 L24.7161856,25.5545126 C24.5533825,25.3908872 24.3377102,25.3094941 24.1228772,25.3094941" id="Fill-13"></path>
                    <path d="M29.0943607,30.3713929 C28.9027029,30.3713929 28.7110452,30.4439998 28.5650558,30.5899621 C28.2738259,30.8811383 28.2738259,31.3572 28.5650558,31.6483762 L29.0943607,32.1775832 C29.2396014,32.322797 29.4320078,32.3961524 29.6236656,32.3961524 C29.8153233,32.3961524 30.0077298,32.322797 30.1529704,32.1775832 C30.4442004,31.886407 30.4442004,31.4103453 30.1529704,31.1191692 L29.6236656,30.5899621 C29.4784249,30.4439998 29.2860185,30.3713929 29.0943607,30.3713929" id="Fill-17"></path>
                    <path d="M10.0717997,25.4053475 L10.0717997,18.3793629 C10.0717997,18.2250623 10.0559923,18.0576992 10.0559923,17.8993166 L15.8173678,15.5268426 L15.8173678,28.2586842 L10.0717997,25.8780462 L10.0717997,25.4053475 Z M8.40786448,32.7881012 L6.76056865,32.7881012 L5.6706911,27.0381582 L8.40786448,27.0381582 L8.40786448,32.7881012 Z M1.66393518,22.4328156 L1.66393518,21.3518948 C1.66393518,20.5877394 2.20388215,19.9509432 2.92935789,19.7794981 L2.92935789,24.0060287 C2.20388215,23.8337672 1.66393518,23.196971 1.66393518,22.4328156 L1.66393518,22.4328156 Z M7.26141313,18.3793629 L8.40786448,18.3793629 L8.40786448,25.4053475 L7.26141313,25.4053475 L4.65652261,25.4053475 L4.59329307,25.4053475 L4.59329307,23.4533223 L4.59329307,20.3322045 L4.59329307,18.3793629 L4.65652261,18.3793629 L7.26141313,18.3793629 Z M18.5836601,29.4628822 C18.5836601,29.7600537 18.3357337,30.0033425 18.0320656,30.0033425 C17.7292294,30.0033425 17.481303,29.7600537 17.481303,29.4628822 L17.481303,14.3226446 C17.481303,14.0246567 17.7292294,13.7813679 18.0320656,13.7813679 C18.3357337,13.7813679 18.5836601,14.0246567 18.5836601,14.3226446 L18.5836601,29.4628822 Z M18.0320656,12.1485572 C17.0278807,12.1485572 16.1875934,12.8122947 15.917204,13.7127898 L8.55845061,16.7620639 C8.50853255,16.7571654 8.45944647,16.7465522 8.40786448,16.7465522 L4.59329307,16.7465522 C3.76049351,16.7465522 3.07661615,17.3490593 2.95431692,18.1328085 C1.29786944,18.3124177 6.82121026e-13,19.6790803 6.82121026e-13,21.3518948 L6.82121026e-13,22.4328156 C6.82121026e-13,24.1064466 1.29786944,25.4722927 2.95431692,25.6519019 C3.04333745,26.2242021 3.42937041,26.69935 3.95933377,26.9140646 C3.95766983,26.9132482 3.9560059,26.9132482 3.95434196,26.9124318 L5.12492036,33.0869056 C5.27134666,33.8600415 5.95855189,34.4209119 6.76056865,34.4209119 L8.40786448,34.4209119 C9.3263567,34.4209119 10.0717997,33.6902291 10.0717997,32.7881012 L10.0717997,27.6504622 L15.917204,30.0719206 C16.1875934,30.9724157 17.0278807,31.6361532 18.0320656,31.6361532 C19.253394,31.6361532 20.2475953,30.6613652 20.2475953,29.4628822 L20.2475953,14.3226446 C20.2475953,13.1241616 19.253394,12.1485572 18.0320656,12.1485572 L18.0320656,12.1485572 Z" id="Fill-21"></path>
                    <path d="M42.5262794,13.6304538 L41.0361836,13.6304538 C40.6160567,13.6304538 40.2762794,13.9662403 40.2762794,14.3804538 C40.2762794,14.7975552 40.6165001,15.1304538 41.0361836,15.1304538 L42.5262794,15.1304538 L42.5262794,16.6205497 C42.5262794,17.0406766 42.8620659,17.3804538 43.2762794,17.3804538 C43.6933808,17.3804538 44.0262794,17.0402331 44.0262794,16.6205497 L44.0262794,15.1304538 L45.5163753,15.1304538 C45.9365022,15.1304538 46.2762794,14.7946674 46.2762794,14.3804538 C46.2762794,13.9633524 45.9360588,13.6304538 45.5163753,13.6304538 L44.0262794,13.6304538 L44.0262794,12.140358 C44.0262794,11.720231 43.690493,11.3804538 43.2762794,11.3804538 C42.8591781,11.3804538 42.5262794,11.7206745 42.5262794,12.140358 L42.5262794,13.6304538 Z" id="Combined-Shape" transform="translate(43.276279, 14.380454) rotate(-30.000000) translate(-43.276279, -14.380454) "></path>
                </g>
            </g>
        </g>
    </g>
</svg>