<?xml version="1.0" encoding="UTF-8"?>
<svg width="52px" height="52px" viewBox="0 0 52 52" version="1.1" xmlns="http://www.w3.org/2000/svg" xmlns:xlink="http://www.w3.org/1999/xlink">
    <!-- Generator: Sketch 42 (36781) - http://www.bohemiancoding.com/sketch -->
    <title>upload</title>
    <desc>Created with Sketch.</desc>
    <defs></defs>
    <g id="ugc发布器" stroke="none" stroke-width="1" fill="none" fill-rule="evenodd" stroke-linecap="round" stroke-linejoin="round">
        <g id="ugc发布器-初始" transform="translate(-874.000000, -517.000000)" stroke="#CACACA" stroke-width="2">
            <g id="Group-8" transform="translate(874.000000, 517.000000)">
                <path d="M19.772367,27.4623 L26.053367,21.5873 L32.460367,27.4623 M26.053367,23.0873 L26.053367,45.3373 M16.814367,35.9363 C13.039367,35.9273 12.529367,35.9103 12.490367,35.9103 C8.29036699,35.9083 4.76236699,32.7103 4.09936699,28.3053 C3.58336699,24.8733 4.99036699,20.2933 10.366367,17.8593 C9.11336699,12.4803 12.119367,7.9473 16.149367,6.0393 C18.668367,4.8463 21.479367,4.6743 24.063367,5.5553 C26.333367,6.3283 28.310367,7.8693 29.867367,10.0593 C32.254367,8.7003 35.081367,8.6063 37.423367,9.9293 C39.448367,11.0743 41.306367,13.5313 41.106367,17.2063 C46.260367,18.7723 48.360367,23.2683 48.083367,27.1483 C47.780367,31.3933 44.539367,35.9623 38.139367,35.9623 C35.256367,35.9623 37.812367,35.9573 34.397367,35.9513" id="upload"></path>
            </g>
        </g>
    </g>
</svg>